<?xml version="1.0" encoding="utf-8"?>
<!-- Generator: Adobe Illustrator 27.2.0, SVG Export Plug-In . SVG Version: 6.00 Build 0)  -->
<svg version="1.1" xmlns="http://www.w3.org/2000/svg" xmlns:xlink="http://www.w3.org/1999/xlink" x="0px" y="0px"
	 viewBox="0 0 2160 1290" style="enable-background:new 0 0 2160 1290;" xml:space="preserve">
<style type="text/css">
	.st0{display:none;fill:#FFFFFF;}
	.st1{fill:#CC2D32;}
	.st2{fill:#FFC000;}
	.st3{fill:#8FBF01;}
	.st4{fill:#EDA95E;}
	.st5{fill:#BB0174;}
	.st6{fill:#68B1B1;}
	.st7{display:none;fill:#F8D5BE;}
	.st8{display:none;fill:#FCFAFA;}
	.st9{display:none;fill:#FEFDF6;}
	.st10{display:none;fill:#F2F2E4;}
	.st11{display:none;fill:#FDF1E8;}
	.st12{display:none;fill:#EDA95E;}
	.st13{display:none;fill:#FFCB11;}
	.st14{font-family:'SourceSansPro-Regular';}
	.st15{font-size:70.3959px;}
	.st16{font-size:40.8431px;}
	.st17{font-size:107.082px;}
	.st18{font-size:28.0602px;}
	.st19{font-size:102.7632px;}
	.st20{font-family:'MyriadPro-Regular';}
	.st21{font-size:52.5211px;}
</style>
<g id="Layer_1">
	<path class="st0" d="M1492.18,1103.59c-474.45,0-947.63,0-1420.8,0c0-337.07,0-674.13,0-1011.2c640,0,1280,0,1920,0
		c0,337.07,0,674.13,0,1011.2C1825.41,1103.59,1659.43,1103.59,1492.18,1103.59z"/>
	<path class="st1" d="M1752.61,881.11c-4.04,1.75-8.41,2.6-12.71,3.73c-2.79,0.74-7.67,1.53-7.88,2.9
		c-2.96,18.43-22.3,17.53-32.16,27.64c-1.7,1.74-5.86,2.57-6.01,4.1c-1.44,14.95-13.85,12.74-23.25,16.9
		c-11.36,5.03-20.78,14.43-33.61,23.81c-23.71-10.32-50.91-22.27-78.24-33.96c-4.5-1.92-9.82-4.42-14.21-3.63
		c-16.22,2.91-31.21-2.44-46.76-4.55c-8.64-1.17-17.88,2.68-26.91,3.63c-6.71,0.71-13.69,1.35-20.27,0.31
		c-10.98-1.73-21.72-4.95-32.6-7.34c-14.56-3.2-29.37-5.49-43.7-9.52c-11.5-3.23-22.55-8.16-33.55-12.92
		c-4.48-1.94-8.05-5.87-12.45-8.09c-5.57-2.81-13.4-8.19-16.91-6.3c-4.55,2.46-6.02,10.91-8.36,16.95
		c-1.11,2.85-1.15,6.11-1.68,9.19c-3.43-1.13-8.87-1.28-9.99-3.54c-9.65-19.56-31.37-23.35-46.18-36.06
		c-19.69-16.89-34.9-36.41-42.83-61.59c-1.68-5.33-8.89-9.12-13.92-13.15c-4.44-3.55-11.23-5.39-13.84-9.82
		c-10.94-18.61-29.38-20.14-47.66-23.7c-20.34-3.97-40.68-8.6-60.39-14.89c-8.24-2.63-14.16-12.42-22.41-15.16
		c-19.35-6.42-39.31-11.36-59.33-15.39c-18.93-3.81-29.15-16.17-35.14-32.57c-6.81-18.65-18.12-33.41-31.89-47.6
		c-14.2-14.62-16.84-33.91-12.87-54.11c3.46-17.59,6.52-35.31,8.49-53.11c1.24-11.25,5.64-18.99,14.25-26.7
		c20.63-18.47,40.1-38.28,59.27-58.28c4.31-4.5,5.87-11.85,8.07-18.1c8.86-25.08,18.63-49.92,25.81-75.48
		c6.03-21.46,33.9-40.35,58.96-42.77c3.85,0.96,5.51,2.31,7.93,3.9c1.08,0.7,1.51,0.98,2.55,1.71c1.01,0.76,1.4,1.07,2.95,2.29
		c2.36,1.74,3.58,2.52,5.46,3.63c1.78,1.24,2.83,2.23,4.4,3.68c0.85,0.8,1.18,1.12,2.51,2.38c1.68,1.52,2.4,2.06,3.73,2.91
		c0.98,0.57,1.37,0.81,2.32,1.43c0.94,0.65,1.31,0.92,2.87,1.88c2.07,1.06,2.95,1.38,4.57,1.86c1.19,0.35,1.66,0.51,2.84,0.96
		c2.55,1.15,4.34,2.12,6.91,3.27c1.17,0.55,1.63,0.77,2.78,1.36c1.6,0.83,2.52,1.28,4.19,2c1.25,0.44,1.76,0.61,3.07,1
		c5.99,1.37,11.3,0.58,17.38,1.35c1.41,0.3,1.97,0.47,3.3,0.98c2.25,1.19,3.63,2.16,5.84,3.39c1.26,0.59,1.78,0.82,3.07,1.35
		c9.46,2.81,18.13,6.34,27.54,0.01c1.11-0.88,1.55-1.23,2.67-2.08c3.45-2.41,6.39-4.07,9.79-6.57c1.21-0.75,1.71-1.02,3.02-1.59
		c5.18-1.32,9.59-2.27,13.82-5.77c1.47-1.24,2.3-1.94,3.71-3.21c1.75-1.66,2.96-2.71,4.78-4.28c1.06-0.79,1.5-1.07,2.67-1.67
		c2.68-0.94,4.73-1.17,7.41-1.98c1.17-0.4,1.64-0.56,2.8-0.96c2.53-0.82,4.37-1.38,6.65-2.76c1.01-0.65,1.42-0.9,2.45-1.52
		c1.48-0.83,2.32-1.31,3.75-2.25c0.99-0.77,1.37-1.09,2.34-1.94c0.97-0.89,1.37-1.25,2.38-2.15c1.5-1.26,2.41-1.93,4.1-3.05
		c9.73-6.05,19.63-5.99,30.56-5.03c1.49,0.33,2.07,0.5,3.46,1.05c6.13,5.26,14.52,2.73,20.23,8.72c0.93,1.04,1.27,1.48,1.99,2.65
		c1.61,3.58,1.61,6.87,3.98,10.05c1.45,1.63,2.52,2.59,4.38,3.71c1.88,1.04,3.13,1.74,5.07,2.67c1.96,0.95,3.22,1.67,5.1,2.79
		c0.99,0.72,1.37,1.04,2.22,1.92c1.35,1.74,2.14,2.98,3.43,4.77c0.69,1.01,0.95,1.43,1.52,2.51c0.83,2.03,1.2,3.44,1.94,5.48
		c0.43,1.12,0.6,1.56,1,2.69c0.5,1.57,0.78,2.47,1.35,4c0.51,1.04,0.73,1.44,1.36,2.41c0.71,0.92,1.02,1.27,2.38,2.57
		c1.81,1.54,2.59,2.11,4.02,3.03c1.06,0.64,1.49,0.9,2.56,1.55c1.5,0.94,2.34,1.51,3.77,2.57c1.76,1.51,2.69,2.73,3.96,4.64
		c0.92,1.5,1.41,2.36,2.31,3.85c0.69,1.01,0.98,1.41,1.73,2.38c1.11,1.31,1.78,2.04,3.01,3.28c0.92,0.88,1.3,1.23,2.23,2.13
		c1.7,1.66,2.8,2.82,4.58,4.47c4.62,4.58,8.6,8.62,13.23,13.18c1.72,1.73,2.77,2.94,4.43,4.65c0.89,0.9,1.24,1.26,2.11,2.16
		c0.85,0.89,1.19,1.24,2.56,2.61c2.07,1.99,3.13,2.95,4.87,4.22c1.35,1.03,2.06,1.7,3.19,2.99c0.76,0.97,1.04,1.38,1.74,2.4
		c0.68,1.05,0.95,1.47,1.61,2.53c1.2,1.93,1.99,3.22,3.37,5.07c0.77,1.09,1.07,1.54,1.77,2.72c1.92,3.85,2.75,7.22,4.55,11.08
		c0.8,1.09,1.13,1.51,1.95,2.56c1.48,1.84,2.51,3.03,4.3,4.6c1.01,0.9,1.41,1.27,2.38,2.26c6.26,5.76,4.85,13.17,6.99,20.28
		c0.65,1.17,0.91,1.62,1.54,2.77c0.81,1.59,1.25,2.5,2.02,4.06c0.59,1.04,0.83,1.45,1.47,2.45c0.98,1.32,1.59,2.03,2.79,3.17
		c0.92,0.76,1.3,1.06,2.27,1.8c1,0.72,1.41,1,3.21,1.96c9.05,2.13,16.74,3.08,25.4,1.97c7.95,2.7,15.68,3.42,23.03,7.82
		c2.47,1.9,4.23,3.32,7.09,4.62c1.25,0.71,1.73,1.04,2.84,1.96c3.96,4.92,4.97,10.15,6.54,16.08c1.21,4.83,2.32,8.79,1.69,13.81
		c-0.35,1.39-0.55,1.92-1.22,3.16c-2.12,2.2-4.27,2.82-6.79,4.3c-1.3,1.09-1.82,1.87-1.96,3.49c0.81,2.06,1.71,3.27,3.11,5.1
		c1.23,2.04,1.78,3.53,2.68,5.74c0.49,1.23,0.67,1.72,1.05,2.99c0.6,2.9,0.55,5.02-0.06,7.92c-0.45,1.26-0.67,1.75-1.31,2.91
		c-2.47,3.37-2.66,6.5-2.56,10.53c0.06,1.39,0.09,1.96,0.14,3.38c0.04,1.44,0.06,2.03,0.08,3.5c-0.14,6.93,0.11,12.97-0.39,19.91
		c-0.24,1.49-0.37,2.07-0.81,3.5c-0.56,1.36-0.83,1.88-2,3.83c-3.06,4.53-4.81,7.75-3.87,12.51c0.37,1.29,0.53,1.8,0.95,3.09
		c1.38,5.16,4.09,8.75,6.6,13.43c0.59,1.33,0.8,1.88,1.23,3.28c3.26,11.37-3.3,21.86,0.73,33.06c1.69,2.08,2.78,3.5,4.54,5.56
		c0.95,1.19,1.31,1.69,2.16,2.96c3.03,5.73,5.44,10.73,5.95,17.31c0.2,5.2,0.09,9.45-2.05,14.27c-1.26,2.29-2.26,3.7-3.69,5.82
		c-1.45,1.98-2.63,3.08-4.52,4.53c-1.84,1.27-3.11,2.02-4.76,3.44c-0.79,0.84-1.09,1.2-1.73,2.14c-0.69,1.43-0.9,2.31-0.95,3.92
		c0.3,2.13,0.64,3.54,1.44,5.59c1.15,2.58,2.37,4.17,4.63,5.99c6.2,6.21,10.08,13.57,18.14,17.95c1.62,1.06,2.53,1.68,4.12,2.71
		c1.11,0.7,1.55,0.98,2.62,1.7c2.24,1.58,3.84,2.74,6.37,3.72c1.12,0.43,1.56,0.61,2.66,1.08c1.49,0.73,2.33,1.16,3.8,1.88
		c1.06,0.49,1.49,0.68,2.55,1.17c1.95,0.84,3.29,1.33,5.36,1.97c2.14,0.8,3.49,1.53,5.63,2.46c5.16,1.8,9.59,1.61,14.88,0.17
		c1.42-0.42,2-0.58,3.46-0.91c15.62-0.01,16.77,0.93,19.2,15.25c0.35,2.06,0.66,4.04,2.86,6.11c1.24,0.73,1.77,0.99,3.09,1.61
		c2.41,1.08,4.03,1.79,6.53,2.74c3.64,1.55,6.05,3.47,9.65,5.14c7.76,2.59,14.9,1.01,22.89,1.75c18.09,8.08,36.33,7.91,55.57,7.59
		c1.6,0.16,2.22,0.26,3.75,0.59c3.71,1.2,6.25,2.73,9.64,4.4c1.2,0.68,1.67,0.97,2.75,1.78c1.32,1.32,1.96,2.16,2.97,3.68
		c0.74,1.05,1.04,1.47,1.8,2.5c1.09,1.46,1.68,2.32,2.65,3.89c1.43,2.63,2.19,4.68,2.95,7.61c0.6,3.66,0.56,6.51,0.36,10.23
		c-0.16,1.43-0.25,2-0.54,3.4c-1.35,5.12-2.83,9.46,2.25,13.42c2.06,1.37,3.46,2.24,5.66,3.39
		C1748.82,876.07,1751.13,877.6,1752.61,881.11z"/>
	<path class="st2" d="M1617.16,805.2c-0.87-0.27-1.12-0.05-1.27-0.13c-4.05-1.7-7.13-3.07-7.42-8.71
		c-0.83-16-1.25-15.98-18.35-15.05c-0.84,0.6-0.73,0.38-0.61,0.41c-5.47,2.63-11.31,1.06-18.21,0.53c-1.87-1.22-2.6-1.94-3.75-2.94
		c-1.91-0.94-3.48-1.31-5.73-2.11c-0.67-0.46-0.49-0.49-0.47-0.4c-1.07-1.15-2.63-1.34-4.71-2.22c-0.63-0.45-0.41-0.45-0.4-0.35
		c-2.54-2.33-6.09-2.67-9.76-4.68c-0.68-0.5-0.5-0.53-0.47-0.44c-1.27-1.41-3.25-1.32-5.74-2.35c-6.78-6.29-12.71-12.25-19.22-18.75
		c-1.57-2.98-4.36-4.06-5.6-7.49c-1.26-2.17-2.15-3.45-2.96-5.35c0.76-2.18,1.5-3.73,2.21-6.14c0.5-0.69,0.54-0.77,0.58-0.79
		c1.78-1.32,3.66-2.46,5.59-4.74c1.32-1.03,1.91-1.66,2.86-2.56c2.58-1.18,3.63-3.36,5.81-5.56c4.47-4.19,3.45-8.93,3.69-14.21
		c-0.36-7.22-2.83-12.78-7.3-18.37c-0.62-0.58-0.45-0.56-0.45-0.47c-1.75-2.83-3.26-5.93-6.57-8.96
		c-1.29-11.61,1.3-22.22-0.59-33.76c-0.63-0.87-0.44-0.81-0.45-0.71c-1.8-4.85-4.7-9.27-7.33-14.75c-0.59-0.65-0.41-0.62-0.42-0.53
		c-3.49-4.96,1.14-9.14,2.05-14.66c0.57-0.88,0.58-0.69,0.48-0.66c0.54-0.57,1.16-1.18,2.21-2.28c0.44-0.49,0.46-0.27,0.35-0.25
		c2.86-6.93,0.65-14.24,1.33-22.34c0.03-2.31-0.05-3.62-0.3-5.91c-0.04-0.99-0.03-1.24-0.07-1.35c1.11-4.31-1.26-9.26,3.47-13.46
		c0.74-0.61,0.75-0.41,0.64-0.4c2.41-2.79,1.27-6.02,0.47-9.76c-0.53-0.61-0.33-0.56-0.34-0.45c-1.3-1.3-1.26-3.25-2.41-5.69
		c-1.99-2.31-3.62-3.79-5.32-5.99c0.34-2.95,2.13-4.16,4.12-6.18c1.93-1.36,3.56-1.23,5.6-2.25c0.59-0.5,0.56-0.33,0.47-0.33
		c4.91-5.28,2.06-10.27-0.9-16.11c0.1-6.27-2.98-11.79,0.65-17.96c0.83-1.32,1.2-1.82,2.27-2.94c6.1-4.42,12.35-4.55,18.58-4.52
		c7.17,0.03,14.01-1.08,20.99-5.27c1.15-0.87,1.58-1.27,2.68-2.19c1.6-1.19,2.53-1.84,4.12-3.01c1.06-0.92,1.46-1.3,2.45-2.3
		c5.63-7.45,8.85-15.94,18.33-19.83c1.22-0.6,1.7-0.84,2.86-1.48c1.11-0.68,1.54-0.97,3.13-2.25c1.89-1.68,2.62-2.38,3.85-3.64
		c0.85-0.92,1.19-1.3,2.03-2.23c1.49-1.72,2.46-2.89,3.79-4.77c0.8-1.03,1.15-1.42,2.1-2.33c2.27-1.78,4.03-2.95,6.01-5.11
		c1.94-2.28,3.4-3.92,5.94-5.59c5.11-2.62,10.1-2.95,15.17-5.32c0.87-0.96,1.18-1.38,1.88-2.48c2.1-6.45,2.75-12.55,6.32-18.61
		c0.68-1.27,0.98-1.77,1.81-2.97c0.95-1.13,1.37-1.55,2.5-2.5c1.25-0.79,1.78-1.05,3.16-1.57c11.34-2.49,20.59,6.35,31.91,2.77
		c1.17-0.64,1.63-0.92,2.76-1.58c1.98-1.18,3.25-2.01,4.87-3.6c0.85-0.91,1.2-1.27,2.06-2.17c1.57-1.6,2.58-2.69,3.8-4.59
		c1.68-2.87,2.85-5.15,4.36-8.12c1.18-1.99,2.16-3.17,3.64-4.91c0.79-0.95,1.11-1.32,1.85-2.29c1.21-1.82,1.83-3.12,2.47-5.23
		c0.39-1.19,0.57-1.66,1.06-2.83c1.22-2.55,2.17-4.37,3.31-7c0.56-1.21,0.79-1.69,1.4-2.89c1.74-3.09,2.93-5.57,4.87-8.59
		c0.97-1.05,1.42-1.41,2.66-2.14c7.12-2.75,13.38,1.88,20.45-0.58c1.22-0.68,1.7-0.97,2.91-1.65c2.65-1.46,4.58-2.51,7.07-4.24
		c1.2-0.7,1.7-0.95,3.01-1.44c4.81-1.07,8.58,0.02,13.13,1.39c1.29,0.44,1.8,0.63,3.03,1.18c1.17,0.63,1.62,0.91,3.38,2.05
		c2.66,1.65,4.08,2.32,6.33,3.18c4.5,2.23,7.32,5.14,10.12,9.22c1.5,2.41,2.53,4.17,5.01,5.6c1.07,0.65,1.5,0.92,2.54,1.65
		c2.23,1.75,3.98,2.8,6.81,3.55c1.36,0.33,1.91,0.46,3.31,0.79c11.87,0.95,22.91,0.33,34.83,0.59c2.63,0,4.37,0.04,6.92-0.37
		c1.36-0.38,1.9-0.57,3.24-1.07c1.88-0.78,2.95-1.24,4.87-2.06c1.43-0.58,2.01-0.79,3.51-1.26c11.1-2.52,21.07-6.04,32.74-5.58
		c7.16,0.44,13.75-1.26,19.83,4.27c13.31-0.22,25.79-1.1,38.53-1.99c7.01,12.37,2.25,57.79-7.31,66.35
		c-1.27,1.13-2.35,2.7-3.83,3.32c-11.36,4.82-14.06,11.78-11.94,24.69c1.23,7.45-5.92,17.94-12.05,24.51
		c-7.94,8.51-11.37,17.04-10.69,28.38c1.07,17.76-9.31,30.21-23.64,37.27c-10.09,4.98-14.93,9.94-15.81,21.11
		c-0.98,12.41-6.46,24.74-5.94,36.93c0.67,15.63,5.63,31.04,8.22,46.64c1.64,9.85,7,21.7-10.26,24.17
		c-1.55,0.22-3.47,5.44-3.19,8.13c0.17,1.67,4.4,4.45,6.37,4.13c5.15-0.84,10.06-3.12,15.87-5.09c0.16,2.14,0.99,4.24,0.28,5.17
		c-8.95,11.66-6.06,24.3-3.99,37.2c1.93,12.02,3.29,24.21,3.56,36.36c0.14,6.18-4.18,9.65-11.32,7.25
		c-6.96-2.34-14.11-4.15-22.37-6.54c-1.26-1.61-3.72-4.76-6.18-7.9c-1.92,3.5-3.55,7.21-5.89,10.41c-1.46,1.99-3.92,3.3-6.05,4.73
		c-5.64,3.78-11.36,7.46-17.04,11.17c0.38,1.12,0.76,2.25,1.13,3.37c9.42,0,18.83,0,28.57,0c1.31,7.87,2.37,14.3,3.42,20.62
		c-21.69,15.41-43.5,30.37-64.57,46.31c-4.53,3.43-8.1,10.05-9.14,15.75c-2.44,13.35-6.16,18.55-17.2,17.93
		c-3.23-1.11-5.73-1.5-9.03-2.54c-1.83-0.51-2.78-0.68-4.12-1.15c-4.58-4.77-8.68-9.3-5.96-17.25c0.48-1.03,0.45-0.93,0.4-0.9
		c1.76-4.47,1.63-9.06,0.19-14.61c-1.26-2.44-2.11-3.96-3.02-6.2c-0.42-1.5-0.91-2.19-2.01-3.22c-0.47-0.44-0.28-0.39-0.29-0.3
		c-1.09-1.08-1.27-2.64-2.28-4.62c-0.53-0.55-0.35-0.54-0.36-0.45c-2.28-2.83-5.52-3.78-9.67-4.76c-0.7-0.5-0.5-0.52-0.47-0.43
		c-2.94-2.4-6.53-1.45-9.76-1.23c-17.64,1.25-34.6-1.55-52.22-7.75c-8.87-0.22-16.62,0.45-25.41-0.89
		c-2.67-1.95-4.28-3.42-6.45-5.23C1621.65,806.12,1619.74,806.08,1617.16,805.2z"/>
	<path class="st3" d="M1622.26,431.73c-1.67,1.63-2.41,2.9-3.19,4.72c-2.95,1.38-5.29,3.27-8.57,5.27
		c-0.71,0.53-0.54,0.53-0.54,0.44c-1.51,2.08-2.95,4.28-4.78,7.18c-0.51,0.61-0.31,0.59-0.31,0.49c-1.51,1.22-3.48,2.06-4.83,4.64
		c-0.48,0.59-0.28,0.57-0.27,0.47c-0.6,0.52-1.21,1.14-2.3,2.19c-0.48,0.44-0.29,0.45-0.28,0.36
		c-13.21,1.23-17.43,11.65-22.66,22.37c-0.58,0.72-0.38,0.72-0.37,0.62c-1.11,1.07-2.66,1.24-4.7,2.13
		c-0.61,0.45-0.47,0.48-0.47,0.41c-6.36,5.63-13.9,7.87-22.34,7.72c-6.84-0.13-13.67,0-20.52,4.59c-0.83,0.59-0.62,0.58-0.61,0.47
		c-2.02,3.15-4.53,5.32-9.57,3.1c-0.88-0.58-0.66-0.6-0.63-0.49c-1.83-2.08-4.9-0.73-7.45-3.11c-7.51-3.14-14.55-5.45-22.4-8.03
		c-9.56-2.81-18.73-1.45-28.41-3.72c-0.85-0.59-0.63-0.57-0.62-0.47c-0.58-0.53-1.19-1.15-2.3-2.2c-0.49-0.44-0.29-0.43-0.28-0.33
		c-1.5-1.23-3.39-2.17-4.82-4.67c-0.48-0.59-0.27-0.55-0.27-0.45c-1.12-1.07-1.3-2.64-2.29-4.67c-0.5-0.59-0.27-0.54-0.28-0.43
		c-3.43-3.96-4.51-8.73-3.87-13.88c0.58-4.68-1.23-8.04-5.88-11.09c-0.73-0.66-0.53-0.66-0.52-0.57c-1.51-1.23-3.39-2.17-4.84-4.66
		c-0.49-0.58-0.27-0.55-0.27-0.44c-4.43-3.6-3.16-10-7.31-14.8c-0.56-0.69-0.36-0.64-0.36-0.54c-1.54-2.05-2.89-4.32-4.83-7.15
		c-0.52-0.6-0.33-0.58-0.33-0.49c-0.76-0.71-1.46-1.56-2.44-3.22c-0.32-0.77-0.96-0.67-0.96-0.67s-0.45-0.47-0.42-0.79
		c-2.11-1.29-3.1-3.65-5.91-5.15c-0.69-0.52-0.58-0.4-0.52-0.36c-0.54-0.59-1.15-1.22-2.25-2.28c-0.48-0.45-0.38-0.31-0.31-0.26
		c-1.33-1.8-2.47-3.92-5.73-5c-5.01-4.64-9.2-8.98-14.03-13.71c-1.4-2.66-2.37-4.76-5.31-6.49c-0.7-0.52-0.61-0.38-0.54-0.34
		c-1.18-1.54-2.04-3.47-4.66-4.82c-0.61-0.47-0.55-0.32-0.48-0.28c-1.2-1.24-1.16-3.23-3.18-4.92c-1.52-1.65-2.25-2.91-3.05-4.7
		c-1.13-0.92-2.1-1.46-3.57-2.76c-0.61-0.57-0.38-0.57-0.36-0.46c-2.07-1.53-4.33-2.91-7.26-4.73c-0.63-0.48-0.55-0.35-0.48-0.32
		c-0.53-0.6-1.14-1.22-2.24-2.29c-0.47-0.45-0.41-0.31-0.35-0.27c-1.79-1.83-0.96-4.36-2.13-7.21c-0.55-0.67-0.34-0.6-0.34-0.49
		c-1.87-1.76-1.05-4.31-2.23-7.16c-0.56-0.67-0.33-0.62-0.34-0.5c-1.53-2.05-2.9-4.33-4.84-7.16c-0.52-0.6-0.33-0.58-0.32-0.48
		c-0.8-0.66-1.7-1.28-3.33-2.27c-2.38-2.16-4.91-1.26-7.57-2.71c-1.67-0.56-2.58-0.83-3.93-1.25c-2.16-4.27-5.05-8.02-5.19-13.62
		c-0.59-0.77-0.48-0.65-0.45-0.58c-3.23-9.98-14.01-3.66-20.1-9.61c-0.59-0.76-0.38-0.71-0.39-0.61c-0.8-0.49-1.32-1.27-1.64-2.94
		c0.11-1.21,0.24-1.68,0.71-2.8c0.91-1.45,1.51-2.23,2.57-3.59c0.98-1.44,1.46-2.33,2.11-3.99c1.29-6.18,0.31-12.12,5.86-18.88
		c2.02-2.48,2.42-2.9,3.45-3.94c1.08-0.99,1.52-1.38,2.65-2.3c9.17-10.74,12.39-23.1,15.38-36.52c1.62-13.87,1.66-27,4.58-40.71
		c-0.29-6.05-0.32-11.21-0.78-17.18c-0.22-1.34-0.32-1.87-0.64-3.18c-0.48-1.81-0.71-2.85-0.83-5.48
		c3.59-18.03,16.85-11.97,25.79-10.92c11.26,1.33,20.81,3.69,30.05-6.15c6.21-6.61,23.92-0.26,28.76,9.37
		c6.32,12.56,14.71,18.31,29.7,14.28c13.6-3.66,30.72,6.31,36.06,19.85c5.44,13.78,17.39,9.11,24.83,6.67
		c6.02-1.98,13.33-12.08,13.19-18.43c-0.41-18.94,4.43-29.11,21.45-37.56c12.73-6.33,22.85-7.69,34.72,3.51
		c5.87,5.53,16.37,11.6,27.55,3.96c3.09-2.11,10.6,1.96,15.98,3.55c5.09,1.51,10.85,6.07,14.89,4.78
		c13.62-4.32,23.85-0.09,32.85,9.67c5.36-3.44,10.16-6.52,14.98-9.62c2.28,3.03,4.02,5.34,7.2,8.3c2.37,1.72,3.13,2.91,4.43,4.56
		c0.76,0.88,1.06,1.24,1.79,2.14c1.26,1.68,2.11,2.8,3.61,4.31c1.17,1.25,1.75,2.05,2.6,3.58c0.97,2.1,1.53,3.54,2.56,5.66
		c3.51,6.68,3.34,12.48-1.01,18.75c-0.85,1.07-1.21,1.47-2.19,2.4c-1.89,1.44-3.25,2.22-5.15,3.56c-0.99,0.77-1.39,1.08-2.36,1.87
		c-0.97,0.78-1.36,1.09-2.36,1.83c-1.03,0.69-1.45,0.95-2.52,1.55c-1.94,1.04-3.25,1.7-4.86,3.23c-0.88,0.88-1.24,1.24-2.11,2.15
		c-2.39,2.37-3.67,4.56-4.79,7.76c-0.48,1.24-0.69,1.72-1.29,2.91c-0.68,1.14-0.98,1.58-2.26,3.25c-3.09,3.61-4.26,6.45-5.34,10.23
		c-1.94,5.93-4.3,10.85-6.5,16.7c-1.21,2.76-2.5,4.46-4.89,6.18c-1.89,0.92-3.28,1.06-4.57,2.37c-0.33,1.48-0.68,2.29-1.5,3.64
		c-1.12,1.8-1.78,3.05-2.45,5.12c-0.35,1.21-0.49,1.7-0.82,2.93c-1.08,4.32-1.13,7.89,0.37,12.07c0.7,1.04,0.99,1.45,1.72,2.44
		c1.05,1.34,1.68,2.07,2.85,3.26c0.89,0.77,1.26,1.06,2.2,1.76c1.37,0.91,2.17,1.4,3.58,2.24c1,0.63,1.38,0.9,2.31,1.61
		c1.26,1.03,2.01,1.57,3.41,2.38c1.02,0.53,1.43,0.75,2.44,1.31c0.97,0.62,1.34,0.89,2.74,2.07c1.34,1.23,1.67,1.56,2.94,2.85
		c1.26,1.31,1.58,1.65,2.33,2.52c0.71,0.92,0.98,1.3,1.61,2.29c0.81,1.45,1.24,2.29,2.02,3.79c0.56,1.08,0.77,1.52,1.3,2.62
		c0.95,1.96,1.46,3.32,3.06,4.84c0.91,0.78,1.27,1.1,2.12,1.93c1.07,1.26,1.6,2.03,2.42,3.42c0.6,0.95,0.85,1.32,1.49,2.23
		c0.68,0.88,0.97,1.22,2.19,2.54c1.24,1.32,1.55,1.65,2.29,2.52c0.71,0.9,0.98,1.28,1.64,2.23c0.91,1.35,1.44,2.11,2.46,3.41
		c0.79,0.9,1.12,1.25,1.96,2.13c0.89,0.85,1.26,1.19,2.89,2.45c1.7,1.24,2.15,1.55,3.27,2.37c2.46,2.07,3.84,3.91,4.6,7.14
		c-0.02,3.36-0.91,5.68-1.73,8.86c-0.56,0.74-0.37,0.69-0.39,0.59c-1.88,1.76-1.09,4.27-2.19,7.13c-0.54,0.68-0.33,0.66-0.33,0.55
		c-1.19,1.02-2.75,1.63-4.58,3.25c-2.79,3.71-3.78,7.52-6.51,11.32c-1.32,2.1-2.15,3.53-3.87,5.33c-0.6,0.57-0.45,0.57-0.45,0.49
		c-1.19,1.55-2.17,3.36-4.68,4.77c-0.61,0.45-0.4,0.47-0.38,0.37c-5.82,4.52-11.9,5.07-18.63,1.62c-5.71-2.92-11.98-3.46-19.18-2.13
		c-0.83,0.59-0.63,0.6-0.61,0.49c-0.59,0.53-1.2,1.15-2.29,2.23c-0.47,0.46-0.26,0.43-0.25,0.32c-5.8,6.02-7.09,13.53-7.3,22.36
		c-0.56,0.8-0.35,0.74-0.36,0.63C1636.72,431.05,1627.87,426.14,1622.26,431.73z"/>
	<path class="st4" d="M111.55,911.23c2.95-3.63,5.15-6.72,7.85-9.3c6.11-5.85,9.09-11.13,6.64-20.98
		c-1.99-7.99,2.45-17.68,4.5-26.51c1.12-4.85,2.62-9.79,5-14.11c2.72-4.93,5.65-11.34,10.18-13.4
		c21.61-9.84,35.97-27.41,50.93-44.53c3.87-4.43,8.03-8.63,12.19-12.79c1.48-1.48,4.57-2.28,4.89-3.82
		c5-23.63,27.05-18.08,41.88-24.96c5.13-2.38,8.94-7.44,13.73-10.73c6.28-4.31,12.45-9.72,19.51-11.77
		c25.41-7.37,52.47-14.43,66.11-38.13c8.7-15.11,20.35-32.63,15.22-50.48c3.3-8.81,5.2-16.09,8.65-22.54
		c4.72-8.81,10.84-15.99,22.39-17.18c5.26-0.54,11.54-3.9,14.83-8c6.2-7.73,14-10.29,20.99-3.3c9.35,9.34,17.85,13.61,29.41,2.87
		c2.34-2.18,9.91-0.59,14.09,1.35c19.38,8.98,29.11,26.13,35.77,45.2c3.37,9.65-5.13,23.03-16.13,23.01
		c-16.06-0.03-18.72,11.91-24.24,22.03c-3.88,7.1-9.08,13.66-11.89,21.14c-5.29,14.09-9.47,28.61-13.75,43.06
		c-6.64,22.41,2.94,42.23,11.4,61.74c7.32,16.9,5.65,23.96-10.02,32.09c-7.78,4.04-14.64,9.83-22.09,14.55
		c-29.19,18.51-62.82,23.25-95.61,30.72c-10.62,2.42-21.58,4.83-31.23,9.58c-7.89,3.89-16.06,10.02-20.58,17.33
		c-8.23,13.32-12.97,28.75-20.84,42.34c-6.44,11.12-16.77,20.08-22.73,31.39c-7.73,14.68-12.72,30.78-19.14,46.17
		c-1.27,3.03-3.11,6.35-5.66,8.23c-8.34,6.16-9.48,15.48-6.15,22.87c5.16,11.43-5.48,16.79-6.93,25.37
		c-0.17,0.97-3.95,2.47-5.37,1.93c-12.27-4.65-24.4-9.7-36.55-14.66c-6.12-2.5-12.93-4.09-18.14-7.86
		c-5.93-4.29-10.64-10.38-15.49-16.02c-3.71-4.32-6.59-9.35-10.29-13.69c-2.68-3.15-7.98-5.2-8.84-8.57
		c-3.74-14.64-13.32-28.04-7.44-44.92c2.78-8,2.31-18.02,0.48-26.51C95.83,934.09,99.74,922.14,111.55,911.23z"/>
	<path class="st5" d="M1704.84,173.58c-0.35-0.8-1.4-1.36-1.39-1.67c-1.85-0.96-2.54-2.48-3.47-4.9c-0.56-0.66-0.44-0.58-0.41-0.52
		c-2.44-1.48-3.99-3.6-4.73-7.2c-0.54-0.62-0.38-0.6-0.36-0.52c2.56-3.36,4.4-7.89,7.77-10.01c9.45-5.97,19.52-10.94,32.53-18.04
		c7.22,4.24,13.6,21.46,31.78,14.88c-7.48,13.33-4.69,17.68,10.13,18.29c3.82,0.16,8.69-1.05,11.27,0.83
		c14.76,10.75,29.57,14.28,46.79,5.3c2.69-1.4,9.21,2.94,13.12,5.77c8.49,6.14,17.96,11.83,24.3,19.85
		c12.83,16.23,29.81,27.7,44.2,42.03c1.87,1.86,3.39,5.33,3.13,7.85c-2.47,24.63,13.25,44.22,18.52,66.69
		c0.9,3.82,6.72,6.41,10.05,9.77c4.38,4.42,11.61,8.72,12.15,13.66c0.94,8.69-4.5,16.08-14.56,17.35
		c-8.72,1.1-17.51,1.67-27.43,2.64c-6.82,2.04-12.65,0.53-19.46,1.02c-13.22-0.89-24.92,1.25-37.19,5.88
		c-0.86,0.61-0.69,0.62-0.67,0.54c-1.14,1.03-2.71,1.19-4.73,2.15c-0.59,0.48-0.41,0.49-0.39,0.39c-1.28,0.91-2.74,1.35-5.56,1.24
		c-14.54-0.08-27.91,0.2-42.29-0.74c-1.02-0.59-0.96-0.39-0.86-0.4c-1.81-1.99-5.4-1.11-7.29-4.66c-0.52-0.64-0.46-0.49-0.39-0.47
		c-2.02-2.06-6.09-1.24-7.52-5.69c-3.03-3.34-5.69-5.85-8.72-8.95c-2.01-1.36-3.67-2.09-6.22-2.91c-0.73-0.55-0.68-0.34-0.58-0.34
		c-0.52-0.6-1.14-1.21-2.23-2.27c-0.47-0.45-0.45-0.26-0.35-0.26c-4.97-3.62-10.64-4.54-17.38-3.13c-0.69,0.55-0.49,0.56-0.47,0.46
		c-2.1,1.48-4.39,2.8-7.26,4.69c-0.63,0.48-0.43,0.5-0.41,0.4c-7.66,5.4-16.05-0.38-24.88,2.05c-0.92,0.64-0.77,0.58-0.74,0.51
		c-2.11,2.61-3.9,5.46-4.84,9.62c-0.56,0.64-0.36,0.61-0.37,0.51c-1.26,1.02-2.69,1.38-4.8-0.1c-1.54-1.96-2.59-2.87-3.84-4.25
		c-1.25-0.88-2.21-1.43-3.63-2.76c-0.57-0.61-0.54-0.39-0.43-0.4c-0.55-0.58-1.18-1.17-2.21-2.28c-0.43-0.49-0.43-0.29-0.33-0.28
		c-1.62-2.01-2.86-4.35-4.82-7.16c-0.52-0.6-0.32-0.58-0.32-0.48c-0.57-0.56-1.16-1.2-2.27-2.24c-0.49-0.43-0.29-0.42-0.28-0.32
		c-0.57-0.56-1.17-1.19-2.27-2.25c-0.48-0.45-0.31-0.38-0.3-0.29c-1.07-1.09-1.25-2.64-2.23-4.64c-0.51-0.57-0.34-0.55-0.34-0.47
		c-2.76-2.61-5.2-5.53-7.3-9.72c-0.53-0.63-0.41-0.55-0.38-0.48c-1.06-1.11-1.23-2.67-2.23-4.66c-0.51-0.57-0.33-0.53-0.34-0.44
		c-0.55-0.58-1.13-1.22-2.24-2.25c-0.48-0.43-0.3-0.42-0.3-0.33c-0.56-0.56-1.16-1.19-2.26-2.22c-0.49-0.43-0.3-0.42-0.3-0.33
		c-0.56-0.56-1.15-1.19-2.26-2.21c-0.49-0.42-0.32-0.42-0.31-0.34c-1.88-1.87-4.7-2.32-7.28-4.64c-0.58-0.54-0.41-0.56-0.4-0.47
		c-1.06-1.15-2.6-1.34-4.67-2.2c-0.62-0.44-0.47-0.43-0.45-0.36c-1.48-1.23-3.34-2.16-4.8-4.6c-0.5-0.56-0.34-0.57-0.34-0.49
		c-6.25-4.22-3.12-10.62-3.08-17.13c0.6-0.93,0.41-0.85,0.43-0.74c2.1-1.81,0.82-4.8,3.11-7.4c0.81-0.49,1.31-1.49,1.59-1.54
		c0.14-1.66,0.84-2.71,3.35-3.63c1.86-1.51,2.76-2.57,4.15-3.84c3.68-6,6.69-11.87,9.08-19.02c0.32-3.99,1.78-6.64,3.97-9.93
		c0.58-0.7,0.38-0.69,0.38-0.59c0.58-0.56,1.17-1.19,2.25-2.27c0.46-0.47,0.25-0.44,0.25-0.34c2.77-3.51,3.6-8.22,7.25-12.3
		c0.59-0.62,0.58-0.43,0.48-0.42c1.46-2.44,3.58-3.99,7.17-4.75c0.62-0.54,0.6-0.36,0.51-0.36c0.56-0.57,1.19-1.16,2.27-2.21
		c0.48-0.44,0.29-0.44,0.28-0.35c2.06-1.56,4.37-2.84,7.24-4.72c0.64-0.47,0.45-0.47,0.45-0.38c6.57-4.55,8.29-10.46,4.34-18.56
		C1708.02,178.04,1706.05,176.53,1704.84,173.58z"/>
	<path class="st6" d="M1308.13,289.44c-0.37,0.9-0.9,1.9-1.18,1.97c-1.35,0.39-2.31,0.89-3.7,2.24c-0.55,0.62-0.52,0.45-0.44,0.47
		c-4.67,4.66-10.71,4.06-16.5,3.72c-7.06-0.42-13.24,1.23-18.99,6.93c-0.51,0.91-1.11,1.86-1.4,1.94c-1.33,0.42-2.27,0.94-3.64,2.27
		c-0.54,0.61-0.51,0.45-0.43,0.47c-1.14,1.03-2.69,1.19-4.63,2.25c-0.52,0.55-0.53,0.36-0.44,0.39c-2.85,1.69-5.66,3.66-9.79,4.6
		c-0.64,0.56-0.59,0.37-0.5,0.38c-2.63,2.19-5.96,0.79-9.6,2.16c-0.67,0.65-0.68,0.46-0.59,0.5c-1.96,1.16-3.91,2.38-5.04,5.55
		c-0.33,0.8-0.9,1.72-1.16,1.81c-6.23,2.27-11.66,5.85-18.81,7.42c-0.72,0.62-0.7,0.46-0.62,0.48c-2.85,2.47-7.08,2.99-9.8,7.1
		c-0.45,0.69-0.5,0.55-0.44,0.58c-10.01,8.67-21.38,4.73-33.45,2.88c-0.96-0.49-1.32-0.36-1.43-0.52c-2.16-0.93-2.94-3.27-5.68-4.44
		c-0.68-0.4-0.51-0.47-0.5-0.38c-6.87-3.13-14.21-0.54-22.23-2.11c-0.95-0.53-0.79-0.56-0.8-0.48c-1.02-1.23-2.58-1.38-4.64-2.22
		c-0.63-0.42-0.45-0.45-0.43-0.36c-2.66-2.15-5.55-3.97-9.95-4.57c-0.78-0.37-1.73-0.2-2.14-0.46c-1.69-1.22-3.23-1.44-5.36-2.25
		c-0.64-0.43-0.49-0.46-0.49-0.38c-0.54-0.59-1.12-1.22-2.24-2.24c-0.49-0.42-0.31-0.42-0.31-0.33c-1.05-1.16-2.58-1.35-4.64-2.18
		c-0.62-0.43-0.48-0.47-0.46-0.39c-0.69-0.75-1.49-1.47-3.13-2.39c-1.81-1.23-2.86-2.18-4.19-3.57c-0.99-2.24-2.42-3.04-4.94-3.82
		c-0.71-0.49-0.55-0.5-0.54-0.42c-0.56-0.56-1.15-1.19-2.3-2.16c-0.52-0.38-0.33-0.39-0.33-0.3c-3.01-2.21-5.74-4.88-9.68-7.32
		c-0.68-0.46-0.53-0.47-0.54-0.4c2.83-3.13,5.63-9.02,8.53-9.08c12.76-0.25,23.13-5.09,34.31-10.83
		c14.34-7.36,32.43-8.13,45.71-16.69c23.48-15.13,51.46-23.34,70.44-45.96c5.32-6.34,16.59-7.36,24.38-12.05
		c14.59-8.78,28.92-18.07,42.82-27.9c9.87-6.98,18.87-15.18,29.17-23.01c0.91-0.17,0.74-0.11,0.73-0.2
		c0.93,1.15,1.13,2.67,2.14,4.62c0.53,0.53,0.37,0.56,0.4,0.49c2.43,5.65,0.62,11.66,1.21,18.61c-1.86,14.57-2.41,28.17-4.01,42.7
		c-4.08,14.56-6.91,28.5-16.93,40.49c-0.76,0.67-0.77,0.48-0.67,0.49c-0.63,0.48-1.28,1.03-2.25,2.18c-0.38,0.52-0.4,0.34-0.31,0.35
		c-0.8,0.96-1.64,1.95-3.29,3.44C1306.44,275.5,1310.77,282.55,1308.13,289.44z"/>
	<path class="st4" d="M440.04,538.27c-0.01-7.07-0.7-13.11,0.27-18.87c0.56-3.29,3.82-6.13,5.83-9.12
		c4.17,6.84,6.9,11.34,9.64,15.84c3.17-3.51,6.33-7.02,11.5-12.75c2.62,4.13,9.09,11.45,7.93,12.97
		c-5.78,7.58-12.85,14.81-20.95,19.75C449.83,548.79,441.13,549.38,440.04,538.27z"/>
	<path class="st7" d="M1897.68,356.92c5.05-1.19,11.11-1.31,18.28-1.28c1.16,0.95,1.27,1.75,1.47,3.15
		C1911.18,358.93,1904.93,358.46,1897.68,356.92z"/>
	<path class="st7" d="M1744.92,876.8c1.94-0.21,4.55,0.13,7.78,1.27c0.57,1.3,0.53,1.81,0.36,3.06
		C1750.48,880.37,1748.04,878.87,1744.92,876.8z"/>
	<path class="st8" d="M1656.97,814.17c19.28,1.56,39.42,4.11,60.09,7.64C1697.43,822.12,1676.71,825.86,1656.97,814.17z"/>
	<path class="st8" d="M1517.71,639.88c0.89,9.94,1.81,21.03,2.75,33.3c0.3,1.71,0.59,2.25,0.33,3.51
		c-2.05-3.62-4.66-7.93-4.79-12.31C1515.79,656.62,1517.08,648.82,1517.71,639.88z"/>
	<path class="st9" d="M1590.4,781.9c14.74-6.46,18.63-4.16,19.72,11.38c0.24,3.39,2.9,6.61,5.04,10.81
		c-4.3,0.84-9.98,2.24-8.01-6.43C1610.07,784.74,1603.87,780.11,1590.4,781.9z"/>
	<path class="st8" d="M1267.73,305.17c3.89-2.51,8.36-6.51,13.59-8.27c6.13-2.06,12.92-2.16,20.49-2.94c1.04,1.34,1,2.51,0.97,4.55
		C1291.41,301.14,1280.03,302.9,1267.73,305.17z"/>
	<path class="st8" d="M1166.67,345.91c10.24-1.6,21.81,4.37,32.87-3.66C1190.92,356.08,1178.76,348.45,1166.67,345.91z"/>
	<path class="st8" d="M1435.51,445.73c2.83,2.16,6.31,4.98,7.83,8.62c1.8,4.3,1.9,9.3,2.79,15.06c-1.69-2.68-3.46-6.41-5.18-10.17
		C1439.05,455.09,1437.18,450.91,1435.51,445.73z"/>
	<path class="st9" d="M1456.44,483.84c9.18-0.22,18.59,0.43,28.1,2.12C1475.32,486.24,1465.99,485.47,1456.44,483.84z"/>
	<path class="st9" d="M1515.31,499.25c2.64-1.63,5.53-2.34,9.32-3.3c0.1,5.85-0.7,11.95-1.33,19.12c-0.23,1.43-0.63,1.8-1.68,1.66
		C1519.18,510.88,1517.37,505.53,1515.31,499.25z"/>
	<path class="st10" d="M1525.28,683.23c2.81,4.37,5.59,9.75,8.48,16.05C1530.99,694.87,1528.12,689.56,1525.28,683.23z"/>
	<path class="st11" d="M1533.38,701.12c0.48-0.92,0.67-0.94,0.61-0.95c-0.6,4.84-1.14,9.69-2.53,14.97c-1.32,0.8-1.79,1.17-2.9,0.89
		C1529.59,710.95,1531.25,706.49,1533.38,701.12z"/>
	<path class="st11" d="M1521.24,517.17c-0.25-0.94,0.99-1.02,1.61-1.03c1.02,5.43,1.42,10.87,0.87,15.91
		C1522.35,527.13,1521.92,522.62,1521.24,517.17z"/>
	<path class="st8" d="M1302.2,300.14c7.24,1.79,14.08,4.6,21.02,8.42C1316.15,306.76,1308.98,303.95,1302.2,300.14z"/>
	<path class="st8" d="M1211.55,335.07c4.78-2.97,10.57-5.99,17.31-8.46C1224.06,329.79,1218.31,332.4,1211.55,335.07z"/>
	<path class="st0" d="M1516.33,581.31c0.92,7.02,0.78,15.19-0.3,23.91C1515.16,598,1515.22,590.23,1516.33,581.31z"/>
	<path class="st11" d="M1654.91,813c1.19,0.19,1.21,0.74,1.19,1.02c-8.44,0.14-16.85-0.01-26.13-0.9
		C1637.31,812.51,1645.52,812.66,1654.91,813z"/>
	<path class="st11" d="M1509.54,624.36c3.04,3.65,5.67,8.17,8.31,13.66C1514.95,634.4,1512.04,629.82,1509.54,624.36z"/>
	<path class="st8" d="M1423,425.21c2.54,3.6,5.12,8.18,7.77,13.69C1428.23,435.28,1425.64,430.73,1423,425.21z"/>
	<path class="st8" d="M1136.65,338.55c6.92-0.71,14.31-0.43,22.21,0.79C1151.95,340.04,1144.54,339.79,1136.65,338.55z"/>
	<path class="st0" d="M1734.72,857.86c2.38,4.59,3.96,9.89,5.72,16.24C1731.88,872.24,1731.46,865.98,1734.72,857.86z"/>
	<path class="st11" d="M1511.91,608.54c-0.03,4.05-0.87,8.58-1.76,14.13C1510.43,618.8,1510.76,613.91,1511.91,608.54z"/>
	<path class="st8" d="M1570.97,782.43c4.88-0.49,10.59-0.3,17.47-0.4C1583.68,782.2,1577.74,782.66,1570.97,782.43z"/>
	<path class="st11" d="M1519.25,561.81c0.11,4.43-0.91,8.59-2.53,13.48C1516.79,571.2,1517.46,566.37,1519.25,561.81z"/>
	<path class="st11" d="M1717.7,823.49c3.05,0.26,6.49,1.38,9.95,3.5C1724.48,826.77,1721.28,825.56,1717.7,823.49z"/>
	<path class="st0" d="M1323.18,310.32c1.74,3.05,3.52,7.11,5.3,12.2C1326.72,319.47,1324.96,315.4,1323.18,310.32z"/>
	<path class="st8" d="M1201.21,342.53c2.01-2.55,4.83-5.35,8.59-7.83C1207.82,337.44,1204.92,339.86,1201.21,342.53z"/>
	<path class="st11" d="M1546.07,769.91c3.06,0.29,6.38,1.44,9.95,3.5C1552.95,773.14,1549.64,771.96,1546.07,769.91z"/>
	<path class="st0" d="M1080.17,302.63c3,1.22,6.3,3.28,9.83,6.18C1086.98,307.6,1083.72,305.54,1080.17,302.63z"/>
	<path class="st11" d="M1735.02,843.04c0.86,3.46,1.52,8.21,1.27,13.61C1735.2,852.98,1735.01,848.65,1735.02,843.04z"/>
	<path class="st10" d="M1520.44,678.17c-0.19-1.27-0.17-1.78-0.06-3.06c1.92,1.36,3.74,3.48,5.33,6.45
		C1523.86,681.25,1522.26,680.09,1520.44,678.17z"/>
	<path class="st8" d="M1247.29,317.19c1.95-1.68,4.86-3.41,8.66-5.11C1253.98,313.79,1251.11,315.47,1247.29,317.19z"/>
	<path class="st10" d="M1121.16,330.7c2.71,0.5,6.05,1.61,9.75,3.58C1128.11,333.86,1124.95,332.58,1121.16,330.7z"/>
	<path class="st8" d="M1356.64,356.18c2.2,0.3,4.65,1.47,7.38,3.55C1361.82,359.44,1359.35,358.24,1356.64,356.18z"/>
	<path class="st11" d="M1417.12,417.35c2.46,1.31,4.24,3.34,6.02,6.25C1420.91,422.34,1418.68,420.21,1417.12,417.35z"/>
	<path class="st0" d="M1342.86,330.54c2.48,1.31,4.26,3.34,6.05,6.27C1346.66,335.55,1344.41,333.41,1342.86,330.54z"/>
	<path class="st10" d="M1517.15,533.64c-0.57,2.15-1.88,3.73-3.88,5.68c-0.42-1.38-0.15-3.12,0.8-5.1
		C1515.32,533.68,1515.86,533.38,1517.15,533.64z"/>
	<path class="st11" d="M1520.29,552.98c0.52,2.19,1.1,5.44,0.79,9C1520.24,559.54,1520.3,556.79,1520.29,552.98z"/>
	<path class="st8" d="M1237.14,320.21c1.87-1.28,4.66-2.23,8.44-3.16C1243.74,318.23,1240.9,319.39,1237.14,320.21z"/>
	<path class="st0" d="M1399.26,399.29c1.8,0.4,4.22,1.39,6.32,3.58C1403.46,402.66,1401.67,401.28,1399.26,399.29z"/>
	<path class="st11" d="M1515.03,740.7c1.79,0.88,3.53,2.84,5.35,5.78C1518.63,745.58,1516.8,743.68,1515.03,740.7z"/>
	<path class="st0" d="M1407.8,407.33c1.65,0.21,3.52,1.36,5.9,3.46C1412.14,410.58,1410.08,409.42,1407.8,407.33z"/>
	<path class="st12" d="M1520.75,723.28c-0.64,1.61-2.13,3.4-4.52,5.06C1516.85,726.63,1518.37,725.04,1520.75,723.28z"/>
	<path class="st7" d="M1527.18,715.79c1.2-0.38,1.65-0.36,2.77-0.28c-0.94,1.64-2.55,3.21-5.02,4.98
		C1524.87,719.18,1525.65,717.68,1527.18,715.79z"/>
	<path class="st8" d="M1430.3,440.52c2.06,0.27,3.82,1.5,5.61,3.56C1433.96,443.77,1431.98,442.62,1430.3,440.52z"/>
	<path class="st11" d="M1518.81,534.22c-1.43-0.04-1.95-0.07-3.26-0.17c1.33-0.9,3.44-1.73,6.49-2.57
		C1521.89,532.39,1520.8,533.31,1518.81,534.22z"/>
	<path class="st9" d="M1507.55,495.51c2.23-0.27,4.62,0.49,7.4,2.13C1512.8,497.86,1510.25,497.2,1507.55,495.51z"/>
	<path class="st11" d="M1448.54,476.28c1.71,0.27,3.41,1.51,5.22,3.57C1452.08,479.52,1450.31,478.39,1448.54,476.28z"/>
	<path class="st10" d="M1332.78,325.37c1.69-0.14,4.09,0.44,6.44,1.64C1337.27,327.12,1335.37,326.61,1332.78,325.37z"/>
	<path class="st8" d="M1231.57,325.47c0.44-1.54,1.53-3.69,3.71-5.77C1234.99,321.46,1233.61,323.16,1231.57,325.47z"/>
	<path class="st0" d="M1348.51,338.33c1.17,1.09,2.15,3.11,3.05,6.07C1350.43,343.31,1349.38,341.29,1348.51,338.33z"/>
	<path class="st8" d="M1158.95,341.06c2.04,0.15,3.87,1.17,6.08,3C1163.19,343.89,1160.97,342.92,1158.95,341.06z"/>
	<path class="st8" d="M1351.25,345.98c1.45,1.22,2.88,3.37,3.54,6.25C1353.09,350.95,1352.16,348.93,1351.25,345.98z"/>
	<path class="st0" d="M1379.65,379.11c2.17,0.78,4.58,2.39,6.06,4.89C1383.15,383.24,1381.52,381.59,1379.65,379.11z"/>
	<path class="st0" d="M1374.49,373.96c1.98,0.36,4.15,1.49,5.73,3.59C1377.99,377.25,1376.34,375.99,1374.49,373.96z"/>
	<path class="st11" d="M1517.36,546.56c1.37,0.58,2.47,2.15,3.3,4.67C1519.29,550.63,1518.2,549.09,1517.36,546.56z"/>
	<path class="st8" d="M1113.45,328.15c1.29-0.5,2.87-0.19,4.88,0.86C1117.08,329.49,1115.41,329.22,1113.45,328.15z"/>
	<path class="st10" d="M1105.9,322.89c1.18-0.33,2.76,0.02,4.61,1.2C1109.28,324.47,1107.78,324.02,1105.9,322.89z"/>
	<path class="st0" d="M1093.09,312.73c1.19-0.08,2.79,0.61,4.67,2.2C1096.53,315.05,1095.02,314.27,1093.09,312.73z"/>
	<path class="st8" d="M1257.42,312.86c0.45-1.71,1.63-2.8,3.66-3.64C1260.67,310.81,1259.42,312.15,1257.42,312.86z"/>
	<path class="st12" d="M1514.3,728.67c0.46,1.3,0.02,2.96-1.08,5.24C1512.84,732.7,1513.12,730.86,1514.3,728.67z"/>
	<path class="st11" d="M1540.06,767.13c1.43-0.46,3.51-0.22,5.78,1.04C1544.26,768.74,1542.48,768.28,1540.06,767.13z"/>
	<path class="st9" d="M1556.18,774.98c1.63-0.56,3.42-0.26,5.2,0.97C1559.7,776.53,1558.02,776.19,1556.18,774.98z"/>
	<path class="st9" d="M1561.42,777.62c1.38-0.65,3.04-0.43,5.2,0.6C1565.31,778.85,1563.51,778.67,1561.42,777.62z"/>
	<path class="st11" d="M1726.89,828.51c1.77,0.46,2.9,1.65,3.73,3.69C1728.97,831.78,1727.61,830.51,1726.89,828.51z"/>
	<path class="st12" d="M1616.92,805.65c1.24-0.44,3.12-0.15,5.62,0.88C1621.29,806.97,1619.42,806.67,1616.92,805.65z"/>
	<path class="st0" d="M1371.07,368.73c1.24,0.51,3.07,1.7,4.17,3.78C1373.56,372.07,1372.61,370.74,1371.07,368.73z"/>
	<path class="st8" d="M1445.91,471.06c0.99,0.35,1.92,1.56,2.85,3.64C1447.79,474.35,1446.82,473.14,1445.91,471.06z"/>
	<path class="st10" d="M1131.38,335.74c1.3-0.4,2.93-0.04,4.75,1.14C1134.78,337.3,1133.24,336.9,1131.38,335.74z"/>
	<path class="st0" d="M1339.3,328.52c-0.13-0.89,0.7-0.93,1.11-1.01c1.32,0.27,2.23,0.62,3.24,1.74
		C1342.31,329.81,1340.87,329.61,1339.3,328.52z"/>
	<path class="st0" d="M1405.17,404.53c1.07-0.47,2.29-0.22,3.07,1.05C1406.98,406.15,1406.15,405.7,1405.17,404.53z"/>
	<path class="st11" d="M1730.24,833.53c0.75-0.29,1.59,0.13,2.38,1.39C1731.81,835.25,1731.07,834.74,1730.24,833.53z"/>
	<path class="st11" d="M1414.87,413.84c1.18-0.28,1.99,0.52,2.97,2.16C1416.83,416.2,1415.66,415.56,1414.87,413.84z"/>
	<path class="st8" d="M1364.15,361.4c0.83-0.45,1.78,0.09,3.36,1.21C1366.84,362.93,1365.56,362.66,1364.15,361.4z"/>
	<path class="st8" d="M1353.97,353.47c1.08-0.49,2.3-0.25,3.08,1.02C1355.77,355.07,1354.94,354.63,1353.97,353.47z"/>
	<path class="st11" d="M1517.5,579.48c-0.11,0.68-1,0.65-1.44,0.66c-0.48-0.62-0.51-1.25-0.2-2.75
		C1516.67,577.27,1517.15,578.04,1517.5,579.48z"/>
	<path class="st8" d="M1110.74,325.43c0.75-0.3,1.65,0.1,2.56,1.27C1112.51,327.02,1111.7,326.57,1110.74,325.43z"/>
	<path class="st8" d="M1262.53,309.37c-0.09-0.6,0.61-1.43,2.21-2.42C1264.87,307.57,1264.1,308.36,1262.53,309.37z"/>
	<path class="st0" d="M1089.83,310.32c1.12-0.46,2.03-0.08,2.99,1.04C1091.79,311.79,1090.7,311.47,1089.83,310.32z"/>
	<path class="st11" d="M1453.45,481.3c1.04-0.42,1.89-0.01,2.87,1.15C1455.38,482.85,1454.33,482.49,1453.45,481.3z"/>
	<path class="st10" d="M1102.33,320.17c0.63-0.3,1.82,0,3.18,1.23C1104.75,321.8,1103.82,321.29,1102.33,320.17z"/>
	<path class="st11" d="M1514.53,605.58c0.39,0.94,0.03,1.96-1.16,2.84C1512.96,607.42,1513.37,606.53,1514.53,605.58z"/>
	<path class="st9" d="M1526.39,496.09c5.36-2.76,11.67-5.78,18.28-7.83c7.28-2.26,14.84-3.63,23.3-5.35
		c-6.33,3.45-13.46,7.51-21.1,10.05C1540.73,495.01,1533.97,495.23,1526.39,496.09z"/>
	<path class="st13" d="M1855.7,616.45c0.01,5.05,0.01,9.05,0.01,13.05c-1.43,0.13-2.86,0.27-4.29,0.4
		c-1.32-7.35-2.63-14.71-3.95-22.06c1.36-0.51,2.71-1.01,4.07-1.52C1852.92,609.35,1854.31,612.37,1855.7,616.45z"/>
	<path class="st9" d="M1574.83,480.36c2.84-10.87,5.62-22.78,21.44-23.54C1590.04,464.98,1582.87,472.55,1574.83,480.36z"/>
	<path class="st11" d="M1895.53,355.67c1.15,0.17,1.09,1.06,1.05,1.5c-11.33,2.63-22.62,4.81-34.88,6.48
		C1869.97,351.95,1882.7,356.05,1895.53,355.67z"/>
	<path class="st9" d="M1651.8,399.17c5.35-0.41,11.76-0.61,18.18-0.62c5.8-0.01,11.6,0.18,18.42,0.21
		c-5.12,1.22-11.22,3.4-17.38,3.54C1664.99,402.43,1658.91,400.49,1651.8,399.17z"/>
	<path class="st0" d="M1807.44,366.51c13.23-0.93,26.98-0.88,41.91,0.21C1836.34,367.67,1822.15,367.58,1807.44,366.51z"/>
	<path class="st0" d="M1723.44,345.89c6.86-1.52,14.7-2.45,23.69-3.37c-2.88,1.46-6.81,3.49-10.98,4.22
		C1732.37,347.39,1728.34,346.62,1723.44,345.89z"/>
	<path class="st9" d="M1641.48,424.1c1.06-7.2,3.06-14.78,5.99-22.63C1646.41,408.72,1644.42,416.22,1641.48,424.1z"/>
	<path class="st0" d="M1622.44,432.09c4.74-2.4,10.58-4.8,17.36-7.55C1635.01,426.83,1629.28,429.45,1622.44,432.09z"/>
	<path class="st9" d="M1756.77,337.74c4.82,0.09,10.69,0.31,16.84,1.49C1768.53,339.42,1763.17,338.65,1756.77,337.74z"/>
	<path class="st10" d="M1697.81,389.14c1.46-4.41,3.49-8.36,6.17-12.83c1.04,0.03,1.41,0.57,1.34,2c-1.73,3.86-3.01,6.84-5.09,10.06
		C1699.08,388.96,1698.72,389.28,1697.81,389.14z"/>
	<path class="st0" d="M1712.02,355.28c1.37-1.28,2.63-1.41,4.64-0.81c-0.35,4.24-1.45,7.76-3.51,11.26
		C1712.1,362.61,1712,359.53,1712.02,355.28z"/>
	<path class="st0" d="M1718.16,355.13c0.29-2.95,1.49-6.2,3.61-9.74C1721.48,348.34,1720.28,351.59,1718.16,355.13z"/>
	<path class="st0" d="M1790.66,355.02c3.32,0.66,5.78,2.27,8.53,4.74C1796.25,359.07,1793.03,357.52,1790.66,355.02z"/>
	<path class="st9" d="M1605.57,449.69c0.27-2.17,1.43-4.59,3.49-7.32C1608.8,444.53,1607.63,446.98,1605.57,449.69z"/>
	<path class="st9" d="M1696.51,388.98c0.74-0.3,1.84-0.28,2.38-0.31c-0.67,2.15-1.88,4.34-3.85,5.79
		C1694.79,392.24,1695.28,390.76,1696.51,388.98z"/>
	<path class="st0" d="M1798.6,361.29c3.14,0.35,5.61,1.58,8.34,3.61C1804.1,364.53,1801.02,363.35,1798.6,361.29z"/>
	<path class="st9" d="M1610.65,442.76c1.57-2.32,4-4.13,7.41-5.85C1616.52,439.1,1614.02,441.18,1610.65,442.76z"/>
	<path class="st11" d="M1748.93,342.95c1.16-2.02,3.21-3.79,6.14-5.54C1753.91,339.35,1751.86,341.28,1748.93,342.95z"/>
	<path class="st9" d="M1600.35,454.9c0.4-2.08,1.6-4.34,3.66-5.88C1603.63,451.4,1602.38,453.07,1600.35,454.9z"/>
	<path class="st0" d="M1710.55,373.01c-0.65-2.02-0.39-4.41,0.83-7.17C1712.06,367.86,1711.75,370.25,1710.55,373.01z"/>
	<path class="st9" d="M1690.18,399.19c0.22-1.95,1.47-3.58,3.49-5.42C1693.36,395.55,1692.29,397.53,1690.18,399.19z"/>
	<path class="st0" d="M1705.58,378.8c-0.72-0.16-0.73-0.73-0.84-2.15c1.18-2.19,2.45-3.53,4.42-4.19
		C1708.67,374.89,1707.48,376.64,1705.58,378.8z"/>
	<path class="st11" d="M1851.4,367.93c-0.86-0.18-0.83-1.04-0.85-1.47c1.16-0.58,2.32-0.72,4.38-0.9
		C1854.63,366.38,1853.44,367.24,1851.4,367.93z"/>
	<path class="st11" d="M1856.5,365.96c0.29-1.18,1.5-2.09,3.57-2.99C1859.75,364.07,1858.58,365.15,1856.5,365.96z"/>
	<path class="st0" d="M1776.59,343.65c1.38-0.65,3.13-0.15,5.54,1.04C1780.85,345.18,1778.91,344.99,1776.59,343.65z"/>
	<path class="st9" d="M1569.55,483.8c0.6-2.09,1.89-3.45,3.91-4.11C1572.86,481.77,1571.55,483.15,1569.55,483.8z"/>
	<path class="st9" d="M1649.08,401.46c-0.44-0.83-0.01-1.66,1.16-2.64C1650.63,399.6,1650.29,400.53,1649.08,401.46z"/>
	<path class="st9" d="M1597.75,457.54c-0.51-1.1-0.25-2.25,1.02-3.04C1599.36,455.73,1598.94,456.62,1597.75,457.54z"/>
	<path class="st9" d="M1773.39,340.87c1.17-0.48,2.07-0.08,3.03,1.08C1775.36,342.39,1774.24,342.07,1773.39,340.87z"/>
	<path class="st8" d="M1318.97,264.4c4.18-12.94,9.19-25.19,14.66-38.31c0.93-1.14,1.4-1.41,2.54-1.22
		C1331.16,238.59,1325.48,251.84,1318.97,264.4z"/>
	<path class="st10" d="M1337.57,224.57c-1.19,0.77-1.65,0.76-2.8,0.71c0.82-13.82,2.34-27.59,3.99-42.45
		c0.51-1.53,0.87-1.97,1.75-1.73C1340.12,195.79,1339.21,209.79,1337.57,224.57z"/>
	<path class="st10" d="M1708.76,178.69c4.42,8.23,7.09,15.79-3.17,21.43c-0.1-6.54,0.78-12.76,1.47-19.88
		C1707.28,178.94,1707.69,178.55,1708.76,178.69z"/>
	<path class="st9" d="M1308.53,289.58c0.34-6.43,1.44-13.63,3.65-20.9c1.43-0.41,1.76-0.74,2.58-0.59
		C1313.27,275.32,1311.28,282.07,1308.53,289.58z"/>
	<path class="st10" d="M1672.98,237.27c-2.29,6.7-5.1,12.71-8.68,19.3c1.36-5.44,3.49-11.45,6.35-18.05
		C1671.75,237.49,1672.1,237.04,1672.98,237.27z"/>
	<path class="st10" d="M1685.87,212.06c-1.1,4.42-3.13,8.63-6.03,13.03C1680.95,220.81,1682.94,216.32,1685.87,212.06z"/>
	<path class="st10" d="M1681.15,317.93c2.96,1.98,5.56,4.87,8.17,8.64C1686.48,324.58,1683.64,321.7,1681.15,317.93z"/>
	<path class="st10" d="M1650.25,274.27c1.4,4.67,2.06,10.05,2.97,16.43C1647.03,288.54,1647.03,288.54,1650.25,274.27z"/>
	<path class="st8" d="M1341.09,180.68c-0.06,1.11-1.12,1.09-1.65,1.08c-0.81-6.12-1.09-12.24-1.07-19.46
		C1339.5,167.31,1340.32,173.44,1341.09,180.68z"/>
	<path class="st8" d="M1673.75,237.01c-0.26,0.95-1.31,0.92-1.84,0.92c0.62-3.3,1.76-6.61,3.83-10.08
		C1675.78,230.48,1674.9,233.27,1673.75,237.01z"/>
	<path class="st10" d="M1663.27,300.19c2.79,0.21,5.3,1.39,7.98,3.43C1668.61,303.37,1665.8,302.26,1663.27,300.19z"/>
	<path class="st8" d="M1696.14,338.17c2.96,1.39,5.23,3.5,6.82,6.33C1700,343.11,1697.73,341,1696.14,338.17z"/>
	<path class="st10" d="M1703.96,199.66c-1.19,1.93-3.23,3.92-6.15,5.57C1698.98,203.17,1701.04,201.44,1703.96,199.66z"/>
	<path class="st10" d="M1693.6,206.83c-1.17,2.01-3.24,3.68-6.15,5.49C1688.64,210.48,1690.67,208.48,1693.6,206.83z"/>
	<path class="st10" d="M1694.3,159.6c1.73,1.15,3.46,3.22,5.25,6.13C1697.84,164.55,1696.07,162.54,1694.3,159.6z"/>
	<path class="st10" d="M1652.64,292.42c2.4,0.34,4.12,1.54,5.92,3.56C1656.41,295.62,1654.19,294.45,1652.64,292.42z"/>
	<path class="st10" d="M1653.65,265.69c0.39,2.58-0.32,4.99-1.91,7.78C1651.42,271.08,1651.99,268.3,1653.65,265.69z"/>
	<path class="st11" d="M1709.36,178.38c0.06,0.84-1.22,0.87-1.86,0.91c-1.49-1.51-2.34-3.06-3.1-5.56
		C1706.1,174.37,1707.7,175.96,1709.36,178.38z"/>
	<path class="st10" d="M1699.2,167.26c1.07,0.46,1.92,1.83,3.51,3.77C1701.97,170.46,1700.47,169.32,1699.2,167.26z"/>
	<path class="st10" d="M1678.3,312.75c1.57,0.39,2.52,1.6,3.43,3.64C1680.35,316.01,1679.02,314.79,1678.3,312.75z"/>
	<path class="st10" d="M1658.45,297.65c1.61-0.65,3.21-0.29,5.06,0.9C1661.98,299.13,1660.21,298.9,1658.45,297.65z"/>
	<path class="st8" d="M1338.85,160.44c-1.06-0.3-2.03-1.46-2.89-3.5C1337.04,157.23,1337.99,158.41,1338.85,160.44z"/>
	<path class="st7" d="M1659.1,260.13c-0.08,1.57-0.9,2.53-2.5,4.06C1656.67,263.01,1657.51,261.27,1659.1,260.13z"/>
	<path class="st10" d="M1688.57,328.06c1.51,0.39,2.42,1.58,3.34,3.64C1690.61,331.32,1689.29,330.09,1688.57,328.06z"/>
	<path class="st10" d="M1696.28,204.77c0.47,0.77,0.08,1.62-1.15,2.52C1694.67,206.52,1695.05,205.68,1696.28,204.77z"/>
	<path class="st8" d="M1678.43,225.18c0.42,1,0.09,2.13-1.09,2.98C1676.87,227.03,1677.27,226.16,1678.43,225.18z"/>
</g>
<g id="Layer_2">
	<a xlink:href="https://localhost3001.com/kona" >
	</a>
	<text transform="matrix(0.606 0.5911 -0.6982 0.7159 1027.5116 367.2827)" class="st1 st14 st15">http://localhost:3001/kona</text>
	<text transform="matrix(0.657 -0.6736 0.7159 0.6982 126.1855 991.6215)" class="st4 st14 st16">http://localhost:3001/niihau</text>
	<text transform="matrix(0.1386 0.0971 -0.5739 0.8189 1350.3296 217.9335)" class="st3 st14 st17">http://localhost:3001/home001.com/halelea</text>
	<text transform="matrix(0.5134 -0.2336 0.4141 0.9102 1127.9783 314.9036)" class="st6 st14 st18">http://localhost:3001/napali</text>
	<text transform="matrix(0.1905 0 0 1 1684.2172 295.9859)" class="st5 st14 st19">http://localhost:3001/koolau</text>
	<text transform="matrix(0.5567 -0.5707 0.7159 0.6982 1594.3778 748.2506)" class="st2 st20 st21">http://localhost:3001/puna</text>
</g>
</svg>
