<?xml version="1.0" encoding="UTF-8"?>
<svg xmlns="http://www.w3.org/2000/svg" xmlns:xlink="http://www.w3.org/1999/xlink" width="789px" height="512px" viewBox="0 0 789 512" version="1.1">
<g id="surface1">
<path style=" stroke:none;fill-rule:nonzero;fill:rgb(0%,0%,0%);fill-opacity:1;" d="M 533.773438 28 C 530.976562 32.398438 529.644531 33.332031 526.042969 33.332031 C 523.777344 33.332031 519.246094 34.800781 516.183594 36.667969 C 510.71875 39.734375 510.449219 39.734375 509.117188 37.332031 C 507.117188 33.464844 502.988281 32.933594 495.65625 35.332031 L 488.726562 37.601562 L 484.328125 32.800781 C 480.730469 28.933594 478.996094 28 474.867188 28 C 472.066406 28.132812 468.335938 28.933594 466.46875 30 C 462.203125 32.398438 457.140625 32.398438 453.941406 30 C 445.679688 23.734375 432.21875 30.933594 422.089844 46.800781 C 418.488281 52.535156 414.757812 57.464844 413.691406 57.867188 C 411.425781 58.667969 407.828125 55.199219 407.828125 52.132812 C 407.828125 48.535156 405.027344 46.667969 399.566406 46.667969 C 396.765625 46.667969 394.5 46 394.5 45.332031 C 394.5 42.398438 387.835938 41.332031 382.90625 43.332031 C 376.375 46.132812 375.574219 45.867188 372.109375 40.667969 C 365.710938 30.800781 357.582031 28.667969 348.917969 34.800781 L 344.921875 37.734375 L 339.058594 34.800781 C 333.992188 32.265625 332.527344 32 328.660156 33.332031 C 326.128906 34.132812 323.328125 35.734375 322.53125 36.800781 C 321.597656 37.734375 320.132812 38.667969 319.199219 38.667969 C 318.265625 38.667969 313.734375 42.667969 309.070312 47.464844 C 298.941406 58 283.480469 68.535156 274.152344 71.332031 C 269.484375 72.800781 265.222656 75.464844 259.757812 80.667969 C 254.957031 85.199219 248.695312 89.601562 243.230469 92 C 238.300781 94.132812 230.835938 98.667969 226.570312 102 C 218.042969 108.800781 203.648438 114.535156 195.25 114.667969 C 187.253906 114.667969 180.191406 117.066406 177.925781 120.535156 C 176.59375 122.398438 173.125 124.398438 168.195312 125.734375 C 155.933594 129.199219 152.335938 132.132812 147.269531 143.066406 C 144.738281 148.265625 141.40625 157.464844 139.808594 163.332031 C 133.277344 187.464844 132.878906 188.265625 124.746094 198.535156 C 112.484375 213.867188 102.089844 223.734375 95.691406 226.667969 C 84.097656 231.734375 80.5 238.667969 82.765625 251.199219 C 84.230469 259.066406 84.097656 260 80.632812 268.800781 C 76.5 279.066406 74.769531 294.265625 77.167969 300.265625 C 77.832031 302.265625 81.164062 305.734375 84.230469 308 C 91.5625 313.199219 97.292969 320.667969 103.554688 333.199219 C 107.421875 340.933594 110.488281 344.667969 117.816406 350.800781 C 128.878906 360.132812 136.742188 363.332031 152.734375 365.066406 L 164.464844 366.398438 L 176.191406 380 L 185.921875 380 C 194.050781 380 197.117188 380.667969 204.179688 384 C 209.644531 386.667969 214.710938 388 218.707031 388 C 226.039062 388 228.4375 389.734375 230.570312 396.535156 C 231.902344 400.800781 233.234375 402.132812 239.230469 404.800781 C 246.296875 407.867188 246.828125 408.667969 248.5625 417.066406 C 249.628906 422.132812 262.554688 437.066406 275.882812 448.535156 C 280.679688 452.667969 286.011719 458 287.878906 460.667969 C 292.277344 466.800781 298.140625 468.800781 304.269531 466.132812 C 309.601562 464 312 460.398438 311.070312 456.398438 C 310.667969 454.933594 311.203125 453.066406 312.402344 452.132812 C 314.132812 450.667969 314.535156 450.667969 314.535156 452.265625 C 314.535156 455.464844 319.066406 458.667969 323.597656 458.667969 C 326.527344 458.667969 328.394531 459.734375 330.394531 462.398438 C 332.925781 466 333.726562 466.265625 348.386719 467.601562 C 360.914062 468.800781 365.3125 469.734375 372.640625 473.199219 C 382.238281 477.734375 389.167969 478.398438 394.5 475.332031 C 396.367188 474.265625 400.230469 473.464844 403.164062 473.332031 C 406.09375 473.332031 410.226562 472.398438 412.359375 471.332031 C 416.089844 469.332031 416.492188 469.464844 419.957031 472.800781 C 422.886719 475.601562 425.554688 476.535156 433.417969 477.332031 C 444.878906 478.667969 448.878906 480 452.34375 483.734375 C 453.675781 485.332031 456.605469 486.933594 459.007812 487.464844 C 467.402344 489.199219 480.597656 495.199219 482.863281 498.132812 C 486.0625 502.265625 489.261719 502.132812 493.257812 497.867188 C 494.992188 495.867188 499.921875 491.734375 504.320312 488.535156 C 510.316406 484 513.25 482.667969 517.113281 482.667969 C 521.78125 482.667969 522.3125 482.265625 523.777344 478 C 525.511719 472.933594 532.441406 466.667969 536.574219 466.667969 C 540.4375 466.667969 544.835938 463.066406 545.371094 459.601562 C 545.636719 457.601562 546.835938 456.535156 549.101562 456.265625 C 556.03125 455.464844 558.429688 454.535156 558.429688 452.667969 C 558.429688 451.601562 559.363281 450.667969 560.429688 450.667969 C 562.960938 450.667969 565.894531 445.867188 566.960938 439.867188 C 568.027344 433.464844 583.753906 418.265625 595.75 411.867188 C 605.742188 406.535156 608.277344 403.199219 607.078125 397.066406 C 605.609375 390.535156 604.144531 389.332031 596.546875 389.332031 L 589.75 389.199219 L 596.414062 386.933594 C 604.8125 384 612.273438 384.265625 615.738281 387.332031 C 620.003906 391.199219 625.203125 388.667969 627.46875 382 C 629.066406 377.464844 628.933594 375.199219 627.203125 366.667969 C 624.535156 354.398438 624.535156 350.800781 627.070312 347.464844 C 630 343.601562 629.601562 336.535156 626.535156 334.398438 C 624.667969 333.066406 624.269531 332 625.203125 330.667969 C 627.203125 327.332031 626.535156 322.800781 623.070312 316.265625 C 620.003906 310.535156 619.738281 308.800781 619.871094 292.667969 C 620.003906 283.199219 620.40625 273.867188 620.9375 272.132812 C 621.605469 269.867188 624.402344 267.464844 630.398438 264.398438 C 635.199219 262 640.394531 258.398438 642.128906 256.398438 C 644.925781 253.066406 645.195312 251.734375 644.527344 242.535156 C 643.859375 232.132812 645.59375 226.667969 649.726562 226.667969 C 650.660156 226.667969 653.324219 224.535156 655.722656 221.734375 C 659.855469 217.199219 659.988281 216.535156 659.1875 209.199219 C 658.253906 201.734375 658.386719 201.332031 661.585938 200.535156 C 665.71875 199.601562 672.648438 191.867188 673.847656 187.199219 C 674.382812 185.066406 673.847656 181.867188 672.515625 179.066406 C 670.785156 175.332031 670.648438 173.464844 671.714844 169.066406 C 672.78125 165.332031 672.78125 162.535156 671.847656 159.867188 C 670.917969 157.199219 670.917969 154.667969 671.714844 152.535156 C 674.78125 144.667969 671.582031 134.132812 665.1875 130.667969 C 663.585938 129.867188 662.386719 127.867188 662.386719 126.265625 C 662.253906 122.398438 658.121094 113.199219 655.324219 110.800781 C 653.722656 109.601562 653.058594 106.933594 653.058594 102.132812 C 653.058594 91.066406 643.460938 78.535156 632 74.535156 C 629.199219 73.601562 627.734375 72.132812 627.734375 70.535156 C 627.734375 65.734375 624.402344 61.066406 619.203125 58.398438 C 616.140625 56.933594 611.476562 53.601562 608.675781 51.199219 C 603.078125 46.132812 599.347656 45.601562 592.550781 48.933594 C 588.019531 51.066406 587.75 51.066406 582.6875 47.601562 C 579.488281 45.199219 575.890625 44 572.691406 44 C 568.027344 44 567.894531 43.867188 569.359375 41.332031 C 572.292969 36.667969 569.226562 34 560.695312 33.601562 C 554.433594 33.199219 552.699219 32.667969 550.433594 29.601562 C 543.902344 21.332031 538.304688 20.800781 533.773438 28 Z M 552.964844 42.667969 C 554.566406 42.667969 555.765625 43.464844 555.765625 44.667969 C 555.765625 45.867188 557.230469 48.265625 559.097656 50 C 561.496094 52.535156 563.761719 53.332031 568.292969 53.332031 C 572.023438 53.332031 576.023438 54.398438 578.6875 56 C 583.621094 59.066406 590.152344 59.464844 596.679688 57.066406 C 600.8125 55.601562 601.347656 55.734375 605.34375 59.601562 C 607.742188 61.867188 611.742188 64.667969 614.140625 65.867188 C 617.207031 67.464844 618.40625 68.933594 618.40625 71.199219 C 618.40625 74.933594 624.402344 82.667969 627.335938 82.667969 C 630.398438 82.667969 636.929688 87.867188 641.195312 93.734375 C 644.261719 98 645.0625 100.398438 645.0625 106.132812 C 645.0625 111.734375 645.726562 114 648.527344 117.332031 C 650.523438 119.601562 652.65625 124.265625 653.324219 127.734375 C 654.125 132.535156 655.589844 134.933594 659.1875 138 C 665.71875 143.601562 665.1875 148.667969 657.722656 153.066406 C 652.125 156.265625 652.925781 156.265625 629.734375 153.867188 C 623.601562 153.199219 619.070312 153.734375 611.339844 155.867188 C 605.742188 157.332031 599.480469 158.667969 597.613281 158.667969 C 594.148438 158.667969 584.554688 154.265625 583.21875 152.132812 C 582.6875 151.464844 579.355469 149.867188 575.488281 148.535156 C 571.757812 147.332031 566.5625 145.066406 564.160156 143.734375 C 559.230469 140.667969 551.898438 141.199219 548.96875 144.800781 C 547.769531 146.265625 545.902344 146.535156 541.503906 145.867188 C 536.972656 145.199219 535.105469 145.464844 533.109375 147.332031 C 530.441406 149.734375 530.308594 149.601562 526.976562 146.535156 C 524.976562 144.800781 518.714844 138.132812 512.984375 131.734375 C 503.652344 121.332031 502.453125 119.464844 502.453125 114.800781 C 502.453125 110.933594 503.652344 108.265625 507.117188 103.867188 C 509.652344 100.667969 512.183594 96.132812 512.582031 93.734375 C 512.984375 91.464844 514.847656 88.265625 516.582031 86.535156 C 518.3125 84.933594 519.78125 82.398438 519.78125 81.066406 C 519.78125 79.601562 521.914062 77.601562 525.113281 76 C 530.976562 73.066406 534.441406 67.601562 534.441406 61.464844 C 534.441406 58.398438 533.242188 56.398438 529.109375 53.199219 C 521.511719 47.066406 521.78125 43.332031 530.175781 41.601562 C 534.175781 40.667969 537.371094 39.066406 538.839844 36.933594 L 541.238281 33.734375 L 545.769531 38.265625 C 548.167969 40.667969 551.367188 42.667969 552.964844 42.667969 Z M 485.527344 45.199219 C 489.527344 46.535156 493.390625 46.132812 500.1875 43.332031 C 501.65625 42.667969 502.453125 42.933594 502.453125 44.132812 C 502.453125 47.464844 506.851562 50.667969 511.382812 50.667969 C 514.316406 50.667969 515.78125 51.332031 515.78125 52.535156 C 515.78125 53.601562 517.914062 56.132812 520.714844 58.265625 C 526.578125 63.066406 526.042969 65.464844 518.582031 69.199219 C 514.984375 71.066406 512.851562 73.332031 511.652344 76.535156 C 510.71875 79.066406 508.585938 81.734375 506.851562 82.535156 C 504.453125 83.601562 503.789062 85.066406 503.789062 88.667969 C 503.789062 91.867188 502.453125 95.066406 499.121094 99.332031 C 493.523438 106.800781 492.324219 112.398438 494.457031 121.601562 C 496.058594 127.867188 497.65625 130 509.917969 142.265625 C 524.578125 156.667969 527.109375 161.601562 523.777344 168.132812 C 520.046875 175.332031 518.714844 176 507.253906 176 C 494.722656 176 488.460938 178.800781 486.996094 184.933594 C 484.863281 194.535156 484.460938 195.332031 479.132812 196.132812 C 473.933594 196.933594 472.867188 198 464.738281 208.535156 C 461.804688 212.265625 460.074219 213.332031 456.742188 213.332031 C 451.144531 213.332031 447.542969 216 443.28125 223.199219 L 439.8125 229.066406 L 430.21875 229.734375 C 424.886719 230.132812 418.890625 230.800781 416.890625 231.332031 C 413.292969 232.265625 410.761719 230.535156 404.097656 222.132812 C 401.964844 219.464844 396.367188 219.332031 394.898438 222 C 393.96875 223.464844 392.5 223.867188 389.433594 223.199219 L 385.171875 222.265625 L 385.96875 213.867188 L 386.902344 205.464844 L 382.238281 202.667969 C 378.90625 200.800781 377.175781 198.667969 376.640625 195.734375 C 376.109375 193.199219 373.308594 189.199219 369.3125 185.464844 C 365.84375 182.132812 361.046875 176.667969 358.78125 173.332031 C 356.648438 170 353.582031 166.132812 351.984375 164.800781 C 350.519531 163.332031 349.1875 161.464844 349.1875 160.667969 C 349.1875 157.464844 344.386719 153.066406 339.855469 152.132812 C 335.726562 151.332031 335.058594 150.667969 334.390625 146.265625 C 333.460938 140.535156 330.394531 136.535156 325.730469 135.464844 C 323.996094 134.933594 322.53125 133.867188 322.53125 132.933594 C 322.53125 130.667969 317.332031 125.867188 313.601562 124.800781 C 311.203125 124 310.933594 123.199219 311.46875 118.265625 C 312.402344 110 312.535156 109.734375 318.398438 106.667969 C 321.464844 105.199219 324.796875 102.535156 325.863281 100.800781 C 329.0625 96 329.859375 80.398438 327.863281 63.199219 C 326.527344 51.734375 326.527344 47.199219 327.59375 44.667969 C 329.328125 40.800781 333.726562 40.265625 337.722656 43.332031 C 341.457031 46.132812 347.453125 45.867188 352.652344 42.535156 C 358.382812 39.066406 361.449219 40 366.246094 47.066406 C 370.777344 54 375.441406 55.867188 381.972656 53.464844 C 385.96875 52 387.035156 52 389.035156 53.867188 C 390.367188 55.066406 393.300781 56 395.566406 56 C 398.230469 56 399.832031 56.667969 399.832031 57.867188 C 399.832031 61.601562 406.628906 66.667969 411.691406 66.667969 C 418.890625 66.667969 424.355469 62.535156 429.285156 53.332031 C 434.082031 44.132812 441.148438 37.332031 445.546875 37.332031 C 447.144531 37.464844 449.941406 38.265625 451.808594 39.332031 C 456.339844 42 463.402344 41.734375 469.800781 38.800781 L 475.132812 36.398438 L 478.199219 40.132812 C 479.796875 42.132812 483.128906 44.398438 485.527344 45.199219 Z M 319.730469 78.132812 C 319.863281 92.132812 318.265625 96.800781 312 100 C 305.472656 103.332031 303.738281 105.464844 302.9375 112 C 302.273438 116.667969 301.738281 117.332031 298.671875 117.332031 C 296.675781 117.332031 293.078125 118.800781 290.542969 120.667969 C 288.011719 122.535156 284.679688 124 282.945312 124 C 278.414062 124 273.351562 126.933594 267.21875 133.199219 C 262.824219 137.867188 261.222656 138.667969 256.425781 138.667969 C 252.425781 138.667969 249.496094 139.734375 245.230469 142.800781 C 241.230469 145.734375 239.230469 146.535156 238.167969 145.464844 C 237.367188 144.667969 234.699219 144 232.167969 144 C 229.636719 144 226.171875 142.800781 224.171875 141.199219 C 221.507812 139.199219 219.507812 138.667969 216.175781 139.332031 C 212.578125 140 211.109375 139.601562 208.445312 136.933594 C 206.578125 134.933594 202.980469 133.332031 199.648438 132.933594 C 194.183594 132.265625 187.789062 128.535156 187.386719 126 C 187.386719 125.199219 191.121094 124.265625 195.917969 123.734375 C 207.777344 122.667969 221.238281 117.199219 231.769531 109.464844 C 236.566406 106 244.03125 101.464844 248.296875 99.601562 C 252.558594 97.734375 259.355469 92.800781 263.621094 88.800781 C 268.953125 83.734375 273.484375 80.800781 278.550781 79.066406 C 287.746094 76 302.539062 66.132812 311.203125 57.332031 L 317.867188 50.535156 L 318.664062 58.933594 C 319.199219 63.601562 319.597656 72.132812 319.730469 78.132812 Z M 314.535156 138.132812 C 316.53125 141.734375 318.53125 143.199219 322.664062 144.398438 C 323.863281 144.800781 325.460938 147.734375 326.394531 151.199219 C 327.863281 157.332031 332.527344 161.332031 337.855469 161.332031 C 338.921875 161.332031 340.390625 162.667969 341.054688 164.398438 C 341.722656 166.132812 343.1875 168.265625 344.253906 169.066406 C 345.453125 170 348.785156 174.535156 351.71875 179.199219 C 354.785156 183.867188 359.582031 189.464844 362.511719 191.867188 C 366.113281 194.800781 367.976562 197.464844 368.644531 200.800781 C 369.175781 203.734375 370.910156 206.535156 373.441406 208.398438 C 376.90625 210.933594 377.175781 211.734375 376.375 216.933594 C 375.308594 224.535156 377.707031 230.398438 382.371094 231.464844 C 386.238281 232.265625 387.167969 232.667969 391.835938 235.332031 C 394.632812 236.933594 395.566406 236.933594 398.230469 235.199219 C 401.03125 233.332031 401.429688 233.464844 404.496094 237.066406 C 408.894531 242.265625 414.757812 244.667969 418.222656 242.800781 C 422.089844 240.667969 422.488281 240.933594 422.488281 245.066406 C 422.488281 247.066406 421.289062 249.734375 419.824219 251.066406 C 416.625 253.734375 416.359375 259.601562 419.289062 262.800781 C 421.289062 264.933594 421.289062 265.464844 419.421875 267.332031 C 416.089844 270.667969 415.558594 274.132812 417.824219 279.332031 C 420.488281 285.867188 420.355469 288.265625 417.15625 292.398438 C 412.492188 298.398438 412.359375 303.066406 416.890625 310.933594 C 421.023438 318 421.023438 318.265625 419.15625 324.667969 C 416.757812 332.535156 417.558594 338.265625 421.953125 343.464844 C 425.953125 348.132812 425.421875 352.132812 419.824219 358 C 410.09375 368.265625 412.492188 378.132812 426.21875 384.132812 C 429.285156 385.464844 432.21875 387.601562 432.617188 388.667969 C 433.949219 392.132812 440.878906 394.933594 445.410156 394 C 448.609375 393.199219 449.808594 393.601562 451.410156 396 C 453.140625 398.398438 454.339844 398.800781 458.339844 398.132812 C 470.601562 396.398438 469.667969 396 469.269531 402.667969 C 468.734375 412 471.800781 414 486.328125 414.132812 C 492.59375 414.132812 499.65625 414.667969 501.789062 415.199219 C 504.054688 415.734375 510.449219 417.332031 516.316406 418.800781 C 522.046875 420.398438 528.175781 421.199219 530.042969 420.667969 C 532.574219 420.132812 534.175781 420.800781 537.238281 424.132812 C 540.703125 427.867188 541.105469 428.933594 539.90625 432.265625 C 538.4375 436.398438 539.773438 441.601562 543.371094 445.601562 C 545.101562 447.601562 545.101562 447.867188 542.570312 449.199219 C 541.105469 450 539.105469 452.265625 538.171875 454.265625 C 537.238281 456.265625 534.839844 458.265625 532.839844 458.800781 C 527.910156 460.132812 520.046875 466.398438 517.648438 470.933594 C 516.183594 473.601562 514.714844 474.667969 512.050781 474.667969 C 508.183594 474.667969 506.054688 475.867188 494.859375 484.265625 C 488.460938 489.199219 487.792969 489.332031 484.863281 487.601562 C 483.128906 486.535156 476.730469 483.867188 470.601562 481.867188 C 464.335938 479.734375 457.804688 476.667969 456.074219 474.933594 C 452.34375 471.601562 446.746094 470 435.015625 468.667969 C 428.351562 468 426.085938 467.066406 423.019531 463.867188 C 418.625 459.332031 416.757812 459.066406 409.027344 462.667969 C 405.828125 464.132812 401.164062 465.332031 398.765625 465.332031 C 396.367188 465.332031 392.5 466.265625 390.367188 467.464844 C 386.503906 469.332031 385.96875 469.332031 378.105469 465.464844 C 368.378906 460.800781 358.648438 458.667969 347.851562 458.667969 C 340.921875 458.667969 339.589844 458.265625 336.125 454.667969 C 333.324219 452 330.792969 450.667969 327.996094 450.667969 C 324.929688 450.667969 323.464844 449.734375 321.996094 446.800781 C 318.132812 439.464844 312.535156 439.464844 304.40625 446.933594 C 299.738281 451.199219 298.40625 453.332031 298.941406 455.601562 C 299.207031 457.332031 299.339844 458.667969 299.207031 458.667969 C 298.941406 458.667969 289.476562 449.332031 278.148438 438 C 260.023438 420 257.359375 416.800781 256.558594 412.132812 C 255.359375 405.066406 251.492188 400.265625 244.296875 397.199219 C 239.632812 395.199219 238.566406 394.132812 238.566406 391.199219 C 238.566406 384.132812 229.101562 378.667969 216.707031 378.667969 C 214.574219 378.667969 210.042969 377.066406 206.710938 375.066406 C 201.515625 371.867188 199.117188 371.332031 190.320312 371.332031 L 180.058594 371.332031 L 175.257812 365.734375 C 169.929688 359.464844 166.0625 358 152.601562 356.667969 C 132.609375 354.667969 121.28125 346.535156 110.488281 326.398438 C 106.355469 318.535156 101.691406 312.535156 94.625 305.464844 C 84.898438 295.867188 84.632812 295.464844 84.898438 289.464844 C 84.898438 286.132812 86.628906 278.800781 88.628906 273.332031 C 91.828125 264.667969 92.226562 262 91.5625 252.667969 C 91.292969 246.800781 91.160156 241.199219 91.5625 240.265625 C 91.960938 239.332031 95.558594 236.800781 99.691406 234.800781 C 107.6875 230.667969 118.75 220.265625 131.277344 204.800781 C 141.007812 192.800781 141.671875 191.464844 146.339844 172.265625 C 148.605469 163.199219 152.203125 152 154.46875 147.199219 C 157.933594 139.734375 159.265625 138.265625 164.464844 136 C 175.125 131.199219 177.257812 131.332031 185.121094 136.535156 C 189.253906 139.332031 193.785156 141.332031 196.183594 141.332031 C 198.847656 141.332031 201.25 142.667969 203.914062 145.464844 C 207.378906 149.332031 208.179688 149.601562 213.644531 148.933594 C 218.441406 148.265625 220.039062 148.535156 221.90625 150.667969 C 223.238281 152.132812 226.039062 153.332031 228.171875 153.332031 C 230.300781 153.332031 233.5 154.265625 235.234375 155.464844 C 239.230469 158.132812 242.296875 157.199219 249.359375 151.199219 C 253.894531 147.464844 255.757812 146.667969 258.691406 147.332031 C 263.488281 148.398438 267.21875 146.398438 274.015625 139.066406 C 277.617188 135.199219 280.546875 133.332031 282.8125 133.332031 C 284.679688 133.332031 288.679688 132 291.875 130.265625 L 297.609375 127.332031 L 305.070312 130.933594 C 309.46875 132.933594 313.335938 136 314.535156 138.132812 Z M 566.292969 154.132812 C 571.09375 156.132812 578.421875 159.734375 582.554688 162.132812 C 592.683594 168.398438 597.347656 168.933594 610.675781 165.332031 C 620.269531 162.800781 623.335938 162.535156 633.066406 163.464844 C 648.925781 164.933594 654.523438 164.667969 659.320312 162.265625 C 662.921875 160.265625 663.585938 160.265625 664.253906 162.132812 C 664.652344 163.199219 663.984375 166.535156 662.921875 169.464844 C 660.789062 174.398438 660.921875 175.199219 663.1875 180.132812 C 666.117188 186.667969 665.1875 188.667969 657.1875 193.199219 C 650.523438 196.933594 648.660156 200.800781 650.257812 207.867188 C 651.589844 214.265625 650.390625 216.667969 643.859375 220 C 641.0625 221.332031 638.265625 223.601562 637.730469 224.933594 C 635.066406 231.734375 634.53125 235.464844 635.863281 241.066406 C 637.597656 249.066406 634.933594 252.933594 624.9375 256.933594 C 614.539062 261.066406 612.273438 265.066406 611.074219 280.800781 C 609.609375 300 610.675781 313.332031 614.273438 319.332031 C 617.339844 324.667969 616.671875 326.535156 611.476562 326.667969 C 608.542969 326.667969 603.746094 332.933594 603.746094 336.535156 C 603.746094 338.132812 604.679688 340.800781 605.878906 342.535156 C 607.609375 344.933594 609.074219 345.464844 613.074219 345.066406 C 617.871094 344.667969 618.003906 344.800781 616.671875 347.734375 C 615.339844 350.667969 615.738281 355.464844 619.203125 372.667969 C 619.871094 376 619.738281 376.398438 618.273438 374.933594 C 617.339844 374.132812 615.472656 373.332031 614.140625 373.332031 C 612.808594 373.332031 611.742188 372.667969 611.742188 372 C 611.742188 369.464844 606.410156 365.332031 603.34375 365.332031 C 599.347656 365.332031 596.015625 368.933594 594.949219 374.265625 C 594.28125 377.867188 593.347656 378.667969 588.285156 379.867188 C 582.019531 381.464844 579.753906 384.265625 579.753906 390.535156 C 579.753906 396.933594 582.820312 398.933594 591.484375 397.867188 C 601.210938 396.667969 600.414062 399.199219 589.21875 405.199219 C 580.953125 409.601562 562.828125 425.867188 559.898438 431.601562 C 559.097656 433.199219 558.429688 435.867188 558.429688 437.601562 C 558.429688 442.933594 556.566406 444.535156 552.964844 442.667969 C 548.300781 440.132812 547.769531 438.667969 548.703125 430.933594 C 549.367188 424.398438 549.234375 423.464844 545.636719 420 C 543.503906 417.867188 540.703125 414.800781 539.371094 413.332031 C 537.507812 411.199219 536.171875 410.800781 531.773438 411.464844 C 526.976562 412.265625 515.914062 410.265625 503.253906 406.535156 C 501.121094 405.867188 494.722656 405.332031 488.992188 405.332031 L 478.597656 405.332031 L 478.199219 398.535156 C 477.929688 392.800781 477.132812 391.199219 474.066406 388.800781 C 470.734375 386.398438 469.933594 386.265625 464.335938 387.734375 C 458.472656 389.332031 457.941406 389.199219 456.074219 386.535156 C 454.476562 384.132812 453.140625 383.734375 447.945312 384.398438 C 442.347656 385.066406 441.546875 384.667969 437.414062 380.535156 C 435.015625 378 431.949219 376 430.617188 376 C 429.285156 376 426.886719 374.535156 425.152344 372.667969 L 421.953125 369.332031 L 426.085938 364.933594 C 431.683594 359.066406 433.417969 355.332031 433.417969 348.667969 C 433.550781 344.265625 432.75 341.867188 429.953125 338.535156 C 427.019531 335.066406 426.488281 333.332031 427.152344 330.132812 C 429.820312 317.734375 429.550781 313.332031 425.6875 307.601562 L 422.089844 302.132812 L 424.886719 297.066406 C 428.085938 291.601562 428.753906 281.601562 426.351562 277.066406 C 425.152344 274.933594 425.421875 273.867188 427.6875 271.464844 C 431.019531 267.867188 431.285156 264.398438 428.351562 260.265625 C 426.351562 257.332031 426.351562 256.933594 428.753906 254.398438 C 430.484375 252.398438 431.019531 250 430.882812 245.199219 L 430.617188 238.667969 L 436.480469 238.667969 C 441.945312 238.667969 442.746094 238.132812 449.144531 230.800781 C 454.476562 224.535156 457.140625 222.667969 461.804688 221.464844 C 466.601562 220.265625 468.734375 218.667969 473.265625 212.667969 C 478.066406 206.265625 479.398438 205.332031 483.261719 205.332031 C 488.460938 205.332031 492.726562 201.867188 493.792969 196.667969 C 494.191406 194.800781 494.722656 191.867188 495.125 190 C 496.058594 185.464844 500.457031 184 509.386719 184.933594 C 522.710938 186.265625 530.710938 179.332031 534.574219 163.332031 C 536.574219 154.800781 538.039062 152.933594 541.105469 154.667969 C 545.101562 156.800781 549.769531 156.265625 552.433594 153.332031 C 555.5 150 555.765625 150 566.292969 154.132812 Z M 566.292969 154.132812 "/>
</g>
</svg>
